<?xml version="1.0" encoding="UTF-8" standalone="no"?>
<!-- Created with Inkscape (http://www.inkscape.org/) -->

<svg
   version="1.1"
   id="svg2"
   width="464.82666"
   height="517.65332"
   viewBox="0 0 464.82666 517.65332"
   sodipodi:docname="logo.eps"
   xmlns:inkscape="http://www.inkscape.org/namespaces/inkscape"
   xmlns:sodipodi="http://sodipodi.sourceforge.net/DTD/sodipodi-0.dtd"
   xmlns="http://www.w3.org/2000/svg"
   xmlns:svg="http://www.w3.org/2000/svg">
  <defs
     id="defs6" />
  <sodipodi:namedview
     id="namedview4"
     pagecolor="#ffffff"
     bordercolor="#000000"
     borderopacity="0.25"
     inkscape:showpageshadow="2"
     inkscape:pageopacity="0.0"
     inkscape:pagecheckerboard="0"
     inkscape:deskcolor="#d1d1d1" />
  <g
     id="g8"
     inkscape:groupmode="layer"
     inkscape:label="ink_ext_XXXXXX"
     transform="matrix(1.3333333,0,0,-1.3333333,0,517.65333)">
    <g
       id="g10"
       transform="scale(0.1)">
      <path
         d="m 889.25,1635.47 -183.848,183.85 306.418,306.42 183.84,-183.85 -306.41,-306.42"
         style="fill:#e9e8e7;fill-opacity:1;fill-rule:nonzero;stroke:none"
         id="path12" />
      <path
         d="m 617.898,1534.42 14.731,41.83 157.922,157.92 13.551,-13.55 -186.204,-186.2"
         style="fill:#3a5b6a;fill-opacity:1;fill-rule:nonzero;stroke:none"
         id="path14" />
      <path
         d="m 792.613,1673.19 -49.5,49.49 29.465,29.47 49.496,-49.5 -29.461,-29.46"
         style="fill:#cdccca;fill-opacity:1;fill-rule:nonzero;stroke:none"
         id="path16" />
      <path
         d="M 889.25,1635.47 705.402,1819.32 881.59,1995.51 1065.44,1811.66 889.25,1635.47"
         style="fill:#f7cb0f;fill-opacity:1;fill-rule:nonzero;stroke:none"
         id="path18" />
      <path
         d="m 1238.61,2146.43 -22.25,22.25 -253.973,-253.97 22.254,-22.25 253.969,253.97"
         style="fill:#3a5b6a;fill-opacity:1;fill-rule:nonzero;stroke:none"
         id="path20" />
      <path
         d="m 1119.03,2026.85 -22.25,22.25 -134.393,-134.39 22.254,-22.25 134.389,134.39"
         style="fill:#959595;fill-opacity:1;fill-rule:nonzero;stroke:none"
         id="path22" />
      <path
         d="m 1262.18,1924.87 -267.184,267.18 c -6.766,6.77 -17.734,6.77 -24.5,0 l -0.25,-0.25 c -6.766,-6.76 -6.766,-17.73 0,-24.5 l 267.184,-267.18 c 6.76,-6.76 17.73,-6.76 24.5,0 l 0.25,0.25 c 6.76,6.77 6.76,17.74 0,24.5"
         style="fill:#cdccca;fill-opacity:1;fill-rule:nonzero;stroke:none"
         id="path24" />
      <path
         d="m 1351.23,2097.45 -183.85,183.85 -31.82,-31.82 183.85,-183.85 31.82,31.82"
         style="fill:#3a5b6a;fill-opacity:1;fill-rule:nonzero;stroke:none"
         id="path26" />
      <path
         d="m 831.504,1761.58 -79.156,79.15 -11.785,-11.78 79.156,-79.16 11.785,11.79"
         style="fill:#3a5b6a;fill-opacity:1;fill-rule:nonzero;stroke:none"
         id="path28" />
      <path
         d="m 822.859,1832.09 -39.578,39.58 -11.785,-11.79 39.578,-39.58 11.785,11.79"
         style="fill:#3a5b6a;fill-opacity:1;fill-rule:nonzero;stroke:none"
         id="path30" />
      <path
         d="m 893.375,1823.45 -79.156,79.15 -11.785,-11.78 79.156,-79.16 11.785,11.79"
         style="fill:#3a5b6a;fill-opacity:1;fill-rule:nonzero;stroke:none"
         id="path32" />
      <path
         d="m 884.734,1893.96 -39.582,39.58 -11.785,-11.79 39.578,-39.57 11.789,11.78"
         style="fill:#3a5b6a;fill-opacity:1;fill-rule:nonzero;stroke:none"
         id="path34" />
      <path
         d="m 955.246,1885.32 -79.156,79.16 -11.785,-11.79 79.156,-79.16 11.785,11.79"
         style="fill:#3a5b6a;fill-opacity:1;fill-rule:nonzero;stroke:none"
         id="path36" />
      <path
         d="m 1810.6,1323.42 92.76,92.76 -265.1,235.87 -166.45,148.13 -45.2,-45.21 148.12,-166.45 235.87,-265.1"
         style="fill:#f5f5f5;fill-opacity:1;fill-rule:nonzero;stroke:none"
         id="path38" />
      <path
         d="m 1810.6,1323.42 92.76,92.76 -11.51,10.24 -253.59,225.63 -63.53,-63.53 220.14,-247.37 15.73,-17.73"
         style="fill:#dcc59c;fill-opacity:1;fill-rule:nonzero;stroke:none"
         id="path40" />
      <path
         d="m 1810.6,1323.42 92.76,92.76 -11.51,10.24 c -8.52,-1.43 -20.91,-4.74 -28.16,-11.99 -14.22,-14.22 -21.43,-45.96 -33.22,-57.75 -7.84,-7.85 -26.16,-13.18 -35.6,-15.53 l 15.73,-17.73"
         style="fill:#94897b;fill-opacity:1;fill-rule:nonzero;stroke:none"
         id="path42" />
      <path
         d="m 1893.55,1340.42 c 2.8,0 5.6,1.07 7.74,3.2 l 6.77,6.77 c 38.61,38.62 38.61,101.46 0,140.07 l -1.27,1.27 c -30.08,30.07 -30.08,79.03 0,109.11 l 30.31,30.31 c 4.27,4.27 4.27,11.2 0,15.47 -4.28,4.27 -11.2,4.27 -15.47,0 l -30.31,-30.31 c -38.61,-38.61 -38.61,-101.45 0,-140.06 l 1.27,-1.27 c 14.57,-14.56 22.59,-33.94 22.59,-54.55 0,-20.61 -8.02,-39.99 -22.6,-54.56 l -6.76,-6.77 c -4.28,-4.28 -4.28,-11.21 0,-15.48 2.13,-2.13 4.93,-3.2 7.73,-3.2"
         style="fill:#a2c1c2;fill-opacity:1;fill-rule:nonzero;stroke:none"
         id="path44" />
      <path
         d="m 1948.43,1369.42 c 2.78,0.34 5.43,1.74 7.3,4.12 l 1.72,2.21 c 24.8,31.66 21.87,76.35 -5.21,104.58 -4.27,4.46 -11.55,4.14 -15.66,-0.47 l -0.07,-0.08 -0.65,-0.84 c -3.32,-4.23 -2.86,-10.17 0.81,-14.1 19.48,-20.85 21.37,-52.85 3.55,-75.6 l -1.26,-1.61 c -3.59,-4.59 -3.58,-11.43 0.71,-15.37 2.5,-2.3 5.7,-3.21 8.76,-2.84"
         style="fill:#a2c1c2;fill-opacity:1;fill-rule:nonzero;stroke:none"
         id="path46" />
      <path
         d="m 903.141,2664.3 c 0,-28.7 -2.547,-56.46 -6.84,-83.14 -16.496,-101.93 -58.871,-185.34 -82.61,-225.71 -5.367,-9.12 -9.789,-16.09 -12.742,-20.52 -2.414,-3.75 -3.754,-5.76 -3.754,-5.76 0,0 -1.207,1.74 -3.351,5.09 l -0.403,0.67 c -2.953,4.43 -7.378,11.4 -12.742,20.52 -23.734,40.37 -66.113,123.78 -82.609,225.71 -4.293,26.68 -6.84,54.44 -6.84,83.14 0,165.09 84.355,302.42 102.594,330.04 2.144,3.36 3.351,5.1 3.351,5.1 0,0 105.946,-150.07 105.946,-335.14"
         style="fill:#78a136;fill-opacity:1;fill-rule:nonzero;stroke:none"
         id="path48" />
      <path
         d="m 590.898,2397.39 c 112.059,0 202.899,-64.15 202.899,-64.15 0,0 -90.84,-64.15 -202.899,-64.15 -112.058,0 -202.902,64.15 -202.902,64.15 0,0 90.844,64.15 202.902,64.15"
         style="fill:#78a136;fill-opacity:1;fill-rule:nonzero;stroke:none"
         id="path50" />
      <path
         d="m 708.695,2289.02 c 35.711,35.71 85.102,44.22 85.102,44.22 0,0 -8.504,-49.39 -44.215,-85.1 -35.711,-35.71 -85.105,-44.22 -85.105,-44.22 0,0 8.507,49.39 44.218,85.1"
         style="fill:#78a136;fill-opacity:1;fill-rule:nonzero;stroke:none"
         id="path52" />
      <path
         d="m 691.547,2589.33 c 93.625,-111.58 105.648,-255.62 105.648,-255.62 0,0 -139.773,36.85 -233.394,148.43 -93.625,111.58 -105.653,255.62 -105.653,255.62 0,0 139.774,-36.85 233.399,-148.43"
         style="fill:#78a136;fill-opacity:1;fill-rule:nonzero;stroke:none"
         id="path54" />
      <path
         d="m 1206.36,2333.19 c 0,0 -90.79,-64.1 -202.91,-64.1 -45.325,0 -87.302,10.59 -121.098,23.06 -30.844,11.4 -54.848,24.41 -68.661,32.59 -7.378,4.43 -11.8,7.51 -12.875,8.32 l -0.269,0.13 c 0,0 1.344,0.94 3.891,2.55 2.144,1.47 5.23,3.48 9.253,5.9 17.969,10.73 53.375,29.64 98.301,42.38 27.492,7.91 58.606,13.41 91.458,13.41 112.12,0 202.91,-64.24 202.91,-64.24"
         style="fill:#78a136;fill-opacity:1;fill-rule:nonzero;stroke:none"
         id="path56" />
      <path
         d="m 929.965,2203.91 c 0,0 -49.488,8.58 -85.16,44.25 -14.352,14.35 -24.41,30.98 -31.114,45.6 -10.058,21.73 -13.144,39.43 -13.144,39.43 l 0.269,-0.13 c 1.207,-0.14 5.903,-1.08 12.875,-3.09 16.227,-4.69 45.059,-15.56 68.661,-37.82 1.211,-0.94 2.281,-2.01 3.355,-3.08 35.672,-35.81 44.258,-85.16 44.258,-85.16"
         style="fill:#78a136;fill-opacity:1;fill-rule:nonzero;stroke:none"
         id="path58" />
      <path
         d="m 1136.22,2737.79 c 0,0 -12.07,-144.03 -105.68,-255.61 -36.204,-43.18 -79.388,-75.23 -118.548,-98.16 -41.172,-24.14 -78.051,-38.36 -98.301,-45.06 -3.757,-1.35 -6.839,-2.28 -9.253,-3.22 -1.34,-0.27 -2.547,-0.67 -3.489,-0.81 -2.414,-0.8 -3.754,-1.21 -3.754,-1.21 0,0 1.075,11.94 4.696,31.52 8.714,47.07 32.586,138.13 94.41,215.92 2.144,2.81 4.293,5.49 6.57,8.18 93.609,111.57 233.349,148.45 233.349,148.45"
         style="fill:#78a136;fill-opacity:1;fill-rule:nonzero;stroke:none"
         id="path60" />
      <path
         d="m 780.699,2134.44 h 32.9922 v 230.797 H 780.699 Z"
         style="fill:#78a136;fill-opacity:1;fill-rule:nonzero;stroke:none"
         id="path62" />
      <path
         d="m 801.891,2365.24 h -8.047 v 629.1 c 2.144,3.36 3.351,5.1 3.351,5.1 0,0 105.946,-150.07 105.946,-335.14 0,-28.7 -2.547,-56.46 -6.84,-83.14 v 0 c -61.824,-77.79 -85.696,-168.85 -94.41,-215.92 v 0"
         style="fill:#5f7d2d;fill-opacity:1;fill-rule:nonzero;stroke:none"
         id="path64" />
      <path
         d="m 1003.45,2269.09 c -45.325,0 -87.302,10.59 -121.098,23.06 v 0 c -23.602,22.26 -52.434,33.13 -68.661,37.82 v 8.99 c 20.25,6.7 57.129,20.92 98.301,45.06 v 0 0 0 c 27.492,7.91 58.606,13.41 91.458,13.41 112.12,0 202.91,-64.24 202.91,-64.24 0,0 -90.79,-64.1 -202.91,-64.1"
         style="fill:#5f7d2d;fill-opacity:1;fill-rule:nonzero;stroke:none"
         id="path66" />
      <path
         d="m 929.965,2203.91 c 0,0 -49.488,8.58 -85.16,44.25 -14.352,14.35 -24.41,30.98 -31.114,45.6 v 36.21 c 16.227,-4.69 45.059,-15.56 68.661,-37.82 v 0 0 0 c 1.211,-0.94 2.281,-2.01 3.355,-3.08 35.672,-35.81 44.258,-85.16 44.258,-85.16"
         style="fill:#5f7d2d;fill-opacity:1;fill-rule:nonzero;stroke:none"
         id="path68" />
      <path
         d="m 813.691,2338.96 v 26.28 h -11.8 v 0 c 8.714,47.07 32.586,138.13 94.41,215.92 v 0 0 0 c 2.144,2.81 4.293,5.49 6.57,8.18 93.609,111.57 233.349,148.45 233.349,148.45 0,0 -12.07,-144.03 -105.68,-255.61 -36.204,-43.18 -79.388,-75.23 -118.548,-98.16 v 0 c -41.172,-24.14 -78.051,-38.36 -98.301,-45.06"
         style="fill:#5f7d2d;fill-opacity:1;fill-rule:nonzero;stroke:none"
         id="path70" />
      <path
         d="m 813.691,2134.44 h -19.847 v 230.8 h 19.847 v -26.28 -8.99 -36.21 -159.32"
         style="fill:#5f7d2d;fill-opacity:1;fill-rule:nonzero;stroke:none"
         id="path72" />
      <path
         d="m 2308.58,3249.3 v -149.86 c 0,-63.66 -42.33,-119.6 -103.61,-137.01 l -38.52,-10.89 -27.97,-7.94 -27.97,7.94 -38.53,10.89 c -61.27,17.41 -103.6,73.35 -103.6,137.01 v 149.86 c 0,55.07 31.67,104.37 79.88,127.99 7.51,3.59 15.45,6.64 23.72,9.03 l 66.5,18.82 66.49,-18.82 c 8.28,-2.39 16.22,-5.44 23.73,-9.03 48.21,-23.62 79.88,-72.92 79.88,-127.99"
         style="fill:#78a136;fill-opacity:1;fill-rule:nonzero;stroke:none"
         id="path74" />
      <path
         d="m 2110.51,2649.21 h 55.9375 v 335.633 H 2110.51 Z"
         style="fill:#78a136;fill-opacity:1;fill-rule:nonzero;stroke:none"
         id="path76" />
      <path
         d="m 2252.64,3448.89 -23.94,-71.6 -7.73,-23.08 h -164.98 l -7.73,23.08 -23.94,71.6 28.51,-16.65 28.51,16.65 28.63,-16.65 28.51,16.65 28.51,-16.65 28.62,16.65 28.52,-16.65 28.51,16.65"
         style="fill:#78a136;fill-opacity:1;fill-rule:nonzero;stroke:none"
         id="path78" />
      <path
         d="m 2196.81,2883.3 v -0.32 c 0,-9.69 -7.83,-17.52 -17.52,-17.52 h -81.62 c -9.69,0 -17.52,7.83 -17.52,17.52 v 0.32 c 0,9.69 7.83,17.53 17.52,17.53 h 81.62 c 9.69,0 17.52,-7.84 17.52,-17.53"
         style="fill:#9dd043;fill-opacity:1;fill-rule:nonzero;stroke:none"
         id="path80" />
      <path
         d="m 2041.36,3044.19 c -6.01,0 -10.89,4.86 -10.89,10.88 v 227.45 c 0,6.02 4.88,10.88 10.89,10.88 6.01,0 10.88,-4.86 10.88,-10.88 v -227.45 c 0,-6.02 -4.87,-10.88 -10.88,-10.88"
         style="fill:#5f7d2d;fill-opacity:1;fill-rule:nonzero;stroke:none"
         id="path82" />
      <path
         d="m 2105.55,3044.19 c -6.01,0 -10.89,4.86 -10.89,10.88 v 227.45 c 0,6.02 4.88,10.88 10.89,10.88 6.01,0 10.88,-4.86 10.88,-10.88 v -227.45 c 0,-6.02 -4.87,-10.88 -10.88,-10.88"
         style="fill:#5f7d2d;fill-opacity:1;fill-rule:nonzero;stroke:none"
         id="path84" />
      <path
         d="m 2138.48,2649.21 h 27.9688 v 216.25 H 2138.48 Z"
         style="fill:#5f7d2d;fill-opacity:1;fill-rule:nonzero;stroke:none"
         id="path86" />
      <path
         d="m 2166.45,2951.54 v 33.3 h -27.97 v 369.37 h 82.49 l 7.73,23.08 v 0 c 48.21,-23.62 79.88,-72.92 79.88,-127.99 v -149.86 c 0,-63.66 -42.33,-119.6 -103.61,-137.01 l -38.52,-10.89 m 67.48,341.86 c -6.01,0 -10.88,-4.86 -10.88,-10.88 v -227.45 c 0,-6.02 4.87,-10.88 10.88,-10.88 6.01,0 10.88,4.86 10.88,10.88 v 227.45 c 0,6.02 -4.87,10.88 -10.88,10.88 m -64.19,0 c -6.01,0 -10.88,-4.86 -10.88,-10.88 v -227.45 c 0,-6.02 4.87,-10.88 10.88,-10.88 6.01,0 10.88,4.86 10.88,10.88 v 227.45 c 0,6.02 -4.87,10.88 -10.88,10.88"
         style="fill:#5f7d2d;fill-opacity:1;fill-rule:nonzero;stroke:none"
         id="path88" />
      <path
         d="m 2166.45,2900.83 h -27.97 v 84.01 h 27.97 v -33.3 -50.71"
         style="fill:#5f7d2d;fill-opacity:1;fill-rule:nonzero;stroke:none"
         id="path90" />
      <path
         d="m 2220.97,3354.21 h -82.49 v 94.68 l 28.51,-16.65 28.62,16.65 28.52,-16.65 28.51,16.65 -23.94,-71.6 -7.73,-23.08"
         style="fill:#5f7d2d;fill-opacity:1;fill-rule:nonzero;stroke:none"
         id="path92" />
      <path
         d="m 2179.29,2865.46 h -40.81 v 35.37 h 40.81 c 9.69,0 17.52,-7.84 17.52,-17.53 v -0.32 c 0,-9.69 -7.83,-17.52 -17.52,-17.52"
         style="fill:#7aa438;fill-opacity:1;fill-rule:nonzero;stroke:none"
         id="path94" />
      <path
         d="m 2169.74,3044.19 c -6.01,0 -10.88,4.86 -10.88,10.88 v 227.45 c 0,6.02 4.87,10.88 10.88,10.88 6.01,0 10.88,-4.86 10.88,-10.88 v -227.45 c 0,-6.02 -4.87,-10.88 -10.88,-10.88"
         style="fill:#4c6126;fill-opacity:1;fill-rule:nonzero;stroke:none"
         id="path96" />
      <path
         d="m 2233.93,3044.19 c -6.01,0 -10.88,4.86 -10.88,10.88 v 227.45 c 0,6.02 4.87,10.88 10.88,10.88 6.01,0 10.88,-4.86 10.88,-10.88 v -227.45 c 0,-6.02 -4.87,-10.88 -10.88,-10.88"
         style="fill:#4c6126;fill-opacity:1;fill-rule:nonzero;stroke:none"
         id="path98" />
      <path
         d="m 2664.58,2418.84 v -0.45 h -309.36 v 0.45 c 0,25.57 18.03,46.84 42.08,51.68 h 0.09 c 3.41,0.63 6.91,0.99 10.5,0.99 h 204.02 c 3.59,0 7,-0.36 10.32,-0.99 h 0.09 c 24.14,-4.84 42.26,-26.11 42.26,-51.68"
         style="fill:#a2c1c2;fill-opacity:1;fill-rule:nonzero;stroke:none"
         id="path100" />
      <path
         d="m 2512.05,2418.39 h -156.83 v 0.45 c 0,25.57 18.03,46.84 42.08,51.68 h 0.09 c 3.41,0.63 6.91,0.99 10.5,0.99 h 19.91 v 0 c 25.12,-11.22 52.85,-17.41 82.01,-17.41 l 1.88,0.09 h 0.36 v 0 -35.8"
         style="fill:#90acae;fill-opacity:1;fill-rule:nonzero;stroke:none"
         id="path102" />
      <path
         d="m 2710.88,2655.08 c 0,-69.26 -35.08,-130.46 -88.56,-166.61 h -0.09 c -9.6,-6.55 -19.74,-12.21 -30.41,-16.96 -24.41,-10.95 -51.42,-17.05 -79.77,-17.32 h -0.36 l -1.88,-0.09 c -29.16,0 -56.89,6.19 -82.01,17.41 -10.67,4.75 -20.81,10.41 -30.41,16.96 h -0.09 c -53.39,36.15 -88.47,97.35 -88.47,166.61 0,88.74 57.51,164.01 137.28,190.66 6.19,2.15 12.47,3.86 18.93,5.3 7,1.7 14.08,2.87 21.26,3.67 7.72,0.99 15.61,1.44 23.51,1.44 l 1.88,-0.09 h 0.36 c 21.27,-0.18 41.72,-3.68 60.83,-10.05 24.23,-7.89 46.3,-20.37 65.41,-36.16 4.04,-3.41 7.72,-6.73 11.4,-10.41 l 0.09,-0.08 c 3.32,-3.06 6.46,-6.37 9.42,-9.7 8.16,-9.06 15.52,-18.84 21.98,-29.15 18.75,-30.69 29.7,-66.76 29.7,-105.43"
         style="fill:#a2c1c2;fill-opacity:1;fill-rule:nonzero;stroke:none"
         id="path104" />
      <path
         d="m 2446.11,2712.68 h 126.77 v 503.43 h -126.77 z"
         style="fill:#a2c1c2;fill-opacity:1;fill-rule:nonzero;stroke:none"
         id="path106" />
      <path
         d="m 2603.93,3230.73 v -0.27 c 0,-7.89 -6.37,-14.35 -14.27,-14.35 h -160.33 c -7.9,0 -14.27,6.46 -14.27,14.35 v 0.27 c 0,7.9 6.37,14.27 14.27,14.27 h 160.33 c 7.9,0 14.27,-6.37 14.27,-14.27"
         style="fill:#a2c1c2;fill-opacity:1;fill-rule:nonzero;stroke:none"
         id="path108" />
      <path
         d="m 2773.23,2852.56 -92.05,-92.05 -86.4,-86.32 -38.5,38.49 -7.53,7.54 24.13,24.13 65.41,65.5 86.76,86.76 2.07,2.07 10.85,-10.86 0.18,-0.18 9.69,-9.69 0.09,-0.09 25.3,-25.3"
         style="fill:#a2c1c2;fill-opacity:1;fill-rule:nonzero;stroke:none"
         id="path110" />
      <path
         d="m 2795.04,2841.34 -0.09,-0.08 c -4.04,-4.04 -10.5,-4.04 -14.45,0 l -9.33,9.24 -23.42,23.5 -13.64,13.64 -9.06,8.97 -9.24,9.25 c -4.04,4.03 -4.04,10.49 0,14.53 l 0.09,0.09 c 4.04,3.95 10.5,3.95 14.45,0 l 64.69,-64.69 c 4.03,-3.95 4.03,-10.5 0,-14.45"
         style="fill:#a2c1c2;fill-opacity:1;fill-rule:nonzero;stroke:none"
         id="path112" />
      <path
         d="m 2446.11,3190.54 h 65.9414 v 25.5742 H 2446.11 Z"
         style="fill:#90acae;fill-opacity:1;fill-rule:nonzero;stroke:none"
         id="path114" />
      <path
         d="m 2348.25,2655.11 c -6.57,0 -11.7,5.62 -11.23,12.16 5.08,71.12 54.35,133.4 123.31,153.94 6.01,1.81 12.33,-1.64 14.12,-7.64 1.79,-6.01 -1.63,-12.32 -7.64,-14.11 -60.07,-17.89 -102.95,-72.24 -107.19,-134.25 -0.39,-5.74 -5.39,-10.1 -11.15,-10.1 h -0.22"
         style="fill:#f5f5f5;fill-opacity:1;fill-rule:nonzero;stroke:none"
         id="path116" />
      <path
         d="m 2660.99,2789.48 c -2.91,0 -5.81,1.1 -8.03,3.32 -4.43,4.43 -4.43,11.62 0,16.05 l 75.7,75.7 c 4.43,4.43 11.61,4.43 16.04,0 4.44,-4.44 4.44,-11.62 0,-16.05 l -75.69,-75.7 c -2.22,-2.22 -5.12,-3.32 -8.02,-3.32"
         style="fill:#f5f5f5;fill-opacity:1;fill-rule:nonzero;stroke:none"
         id="path118" />
      <path
         d="m 2498.15,3222.34 h -65.57 c -6.27,0 -11.35,5.09 -11.35,11.36 0,6.26 5.08,11.34 11.35,11.34 h 65.57 c 6.27,0 11.35,-5.08 11.35,-11.34 0,-6.27 -5.08,-11.36 -11.35,-11.36"
         style="fill:#f5f5f5;fill-opacity:1;fill-rule:nonzero;stroke:none"
         id="path120" />
      <path
         d="m 2664.58,2418.39 h -152.53 v 35.8 c 28.35,0.27 55.36,6.37 79.77,17.32 v 0 0 h 20.09 c 3.59,0 7,-0.36 10.32,-0.99 h 0.09 c 24.14,-4.84 42.26,-26.11 42.26,-51.68 v -0.45"
         style="fill:#70888c;fill-opacity:1;fill-rule:nonzero;stroke:none"
         id="path122" />
      <path
         d="m 2512.05,2454.19 v 258.49 h 44.23 l 38.5,-38.49 86.4,86.32 v 0 c 18.75,-30.69 29.7,-66.76 29.7,-105.43 0,-69.26 -35.08,-130.46 -88.56,-166.61 h -0.09 c -9.6,-6.55 -19.74,-12.21 -30.41,-16.96 v 0 c -24.41,-10.95 -51.42,-17.05 -79.77,-17.32 m 60.83,290.16 v 101.66 0 c 24.23,-7.89 46.3,-20.37 65.41,-36.16 l -65.41,-65.5"
         style="fill:#7d989b;fill-opacity:1;fill-rule:nonzero;stroke:none"
         id="path124" />
      <path
         d="m 2556.28,2712.68 h -44.23 v 477.86 h 60.83 v -344.53 -101.66 l -24.13,-24.13 7.53,-7.54"
         style="fill:#7d989b;fill-opacity:1;fill-rule:nonzero;stroke:none"
         id="path126" />
      <path
         d="m 2589.66,3216.11 h -77.61 V 3245 h 77.61 c 7.9,0 14.27,-6.37 14.27,-14.27 v -0.27 c 0,-7.89 -6.37,-14.35 -14.27,-14.35"
         style="fill:#7d989b;fill-opacity:1;fill-rule:nonzero;stroke:none"
         id="path128" />
      <path
         d="m 2594.78,2674.19 -38.5,38.49 -7.53,7.54 24.13,24.13 65.41,65.5 v 0 l 86.76,86.76 9.06,-8.97 0.06,-0.05 c -2.02,-0.46 -3.94,-1.47 -5.51,-3.04 l -75.7,-75.7 c -4.43,-4.43 -4.43,-11.62 0,-16.05 2.22,-2.22 5.12,-3.32 8.03,-3.32 2.9,0 5.8,1.1 8.02,3.32 l 75.69,75.7 c 1.58,1.57 2.59,3.49 3.05,5.51 V 2874 l 23.42,-23.5 -89.99,-89.99 -86.4,-86.32"
         style="fill:#7d989b;fill-opacity:1;fill-rule:nonzero;stroke:none"
         id="path130" />
      <path
         d="m 2787.69,2838.23 c -2.61,0 -5.21,1.01 -7.19,3.03 l -9.33,9.24 -23.42,23.5 v 0.01 c 0.83,3.67 -0.18,7.68 -3.05,10.54 -2.21,2.21 -5.12,3.32 -8.02,3.32 -0.84,0 -1.69,-0.09 -2.51,-0.28 l -0.06,0.05 -9.06,8.97 -9.24,9.25 c -2.02,2.02 -3.03,4.64 -3.03,7.26 0,2.63 1.01,5.25 3.03,7.27 l 0.09,0.09 c 2.02,1.97 4.64,2.96 7.26,2.96 2.61,0 5.21,-0.99 7.19,-2.96 l 64.69,-64.69 c 2.02,-1.97 3.02,-4.6 3.02,-7.22 0,-2.63 -1,-5.25 -3.02,-7.23 l -0.09,-0.08 c -2.02,-2.02 -4.65,-3.03 -7.26,-3.03"
         style="fill:#7d989b;fill-opacity:1;fill-rule:nonzero;stroke:none"
         id="path132" />
      <path
         d="m 2512.05,3190.54 h 60.8281 v 25.5742 H 2512.05 Z"
         style="fill:#70888c;fill-opacity:1;fill-rule:nonzero;stroke:none"
         id="path134" />
      <path
         d="m 2660.99,2789.48 c -2.91,0 -5.81,1.1 -8.03,3.32 -4.43,4.43 -4.43,11.62 0,16.05 l 75.7,75.7 c 1.57,1.57 3.49,2.58 5.51,3.04 0.82,0.19 1.67,0.28 2.51,0.28 2.9,0 5.81,-1.11 8.02,-3.32 2.87,-2.86 3.88,-6.87 3.05,-10.54 -0.46,-2.02 -1.47,-3.94 -3.05,-5.51 l -75.69,-75.7 c -2.22,-2.22 -5.12,-3.32 -8.02,-3.32"
         style="fill:#c2c0be;fill-opacity:1;fill-rule:nonzero;stroke:none"
         id="path136" />
      <path
         d="m 1090.7,3050.79 c -11.53,-25.32 -30.29,-45.12 -52.64,-57.75 -11.85,-6.57 -24.66,-11.36 -37.74,-13.83 -25.246,-5.34 -52.398,-2.73 -77.527,8.72 -63.84,29.05 -92.023,104.33 -63.051,167.99 11.442,25.13 30.199,44.93 52.742,57.48 11.481,6.73 24.375,11.71 37.723,14.28 25.238,5.34 52.393,2.72 77.713,-8.8 63.65,-28.97 91.83,-104.25 62.78,-168.09"
         style="fill:#cdccca;fill-opacity:1;fill-rule:nonzero;stroke:none"
         id="path138" />
      <path
         d="m 1070.7,3060.79 c -11.53,-25.32 -30.29,-45.12 -52.64,-57.75 -11.85,-6.57 -24.665,-11.36 -37.744,-13.83 -25.242,-5.34 -52.394,-2.73 -77.523,8.72 -63.84,29.05 -92.023,104.33 -63.051,167.99 11.442,25.13 30.199,44.93 52.742,57.48 11.481,6.73 24.375,11.71 37.723,14.28 25.238,5.34 52.395,2.72 77.713,-8.8 63.65,-28.97 91.83,-104.25 62.78,-168.09"
         style="fill:#f5f5f5;fill-opacity:1;fill-rule:nonzero;stroke:none"
         id="path140" />
      <path
         d="m 1003.78,2996.19 c -2.75,-1.12 -5.522,-2.14 -8.327,-3.06 -8.34,-2.75 -17.336,1.95 -20.422,10.17 l -77.265,206.02 c -3.082,8.22 0.597,17.67 8.675,21.09 2.793,1.19 5.641,2.27 8.532,3.25 8.367,2.82 17.445,-1.89 20.543,-10.16 l 77.174,-206.13 c 3.11,-8.3 -0.7,-17.83 -8.91,-21.18"
         style="fill:#e1e0de;fill-opacity:1;fill-rule:nonzero;stroke:none"
         id="path142" />
      <path
         d="m 1606.69,761.07 144.01,145.25 c 30.14,30.391 79.24,30.5 109.5,0.231 L 2005.69,761.07 h -399"
         style="fill:#e9e8e7;fill-opacity:1;fill-rule:nonzero;stroke:none"
         id="path144" />
      <path
         d="m 1316.44,761.07 199.61,201.34 c 41.78,42.13 109.84,42.28 151.79,0.328 L 1869.51,761.07 h -553.07"
         style="fill:#f5f5f5;fill-opacity:1;fill-rule:nonzero;stroke:none"
         id="path146" />
      <path
         d="m 1571.93,944.121 c 0,-4.641 -3.76,-8.402 -8.4,-8.402 -4.64,0 -8.4,3.761 -8.4,8.402 0,4.641 3.76,8.41 8.4,8.41 4.64,0 8.4,-3.769 8.4,-8.41"
         style="fill:#cdccca;fill-opacity:1;fill-rule:nonzero;stroke:none"
         id="path148" />
      <path
         d="m 1601.38,968.109 c 0,-4.64 -3.76,-8.398 -8.41,-8.398 -4.64,0 -8.4,3.758 -8.4,8.398 0,4.653 3.76,8.411 8.4,8.411 4.65,0 8.41,-3.758 8.41,-8.411"
         style="fill:#cdccca;fill-opacity:1;fill-rule:nonzero;stroke:none"
         id="path150" />
      <path
         d="m 1487.04,791.711 c 0,-4.641 -3.77,-8.41 -8.41,-8.41 -4.64,0 -8.4,3.769 -8.4,8.41 0,4.641 3.76,8.398 8.4,8.398 4.64,0 8.41,-3.757 8.41,-8.398"
         style="fill:#cdccca;fill-opacity:1;fill-rule:nonzero;stroke:none"
         id="path152" />
      <path
         d="m 1777.6,814.121 c 0,-4.652 -3.77,-8.41 -8.41,-8.41 -4.64,0 -8.4,3.758 -8.4,8.41 0,4.641 3.76,8.399 8.4,8.399 4.64,0 8.41,-3.758 8.41,-8.399"
         style="fill:#cdccca;fill-opacity:1;fill-rule:nonzero;stroke:none"
         id="path154" />
      <path
         d="m 1654.6,877.59 c 0,-8.25 -6.69,-14.942 -14.94,-14.942 -8.25,0 -14.94,6.692 -14.94,14.942 0,8.25 6.69,14.941 14.94,14.941 8.25,0 14.94,-6.691 14.94,-14.941"
         style="fill:#cdccca;fill-opacity:1;fill-rule:nonzero;stroke:none"
         id="path156" />
      <path
         d="m 1464.47,815.051 c 0,-8.25 -6.69,-14.942 -14.94,-14.942 -8.25,0 -14.94,6.692 -14.94,14.942 0,8.25 6.69,14.937 14.94,14.937 8.25,0 14.94,-6.687 14.94,-14.937"
         style="fill:#cdccca;fill-opacity:1;fill-rule:nonzero;stroke:none"
         id="path158" />
      <path
         d="m 1719.78,800.109 c 0,-8.25 -6.68,-14.937 -14.93,-14.937 -8.25,0 -14.94,6.687 -14.94,14.937 0,8.25 6.69,14.942 14.94,14.942 8.25,0 14.93,-6.692 14.93,-14.942"
         style="fill:#cdccca;fill-opacity:1;fill-rule:nonzero;stroke:none"
         id="path160" />
      <path
         d="m 1812.13,879.559 c 0,-4.129 -3.34,-7.469 -7.47,-7.469 -4.12,0 -7.47,3.34 -7.47,7.469 0,4.132 3.35,7.472 7.47,7.472 4.13,0 7.47,-3.34 7.47,-7.472"
         style="fill:#f5f5f5;fill-opacity:1;fill-rule:nonzero;stroke:none"
         id="path162" />
      <path
         d="m 1845.3,899.93 c 0,-4.121 -3.34,-7.469 -7.47,-7.469 -4.12,0 -7.47,3.348 -7.47,7.469 0,4.129 3.35,7.468 7.47,7.468 4.13,0 7.47,-3.339 7.47,-7.468"
         style="fill:#f5f5f5;fill-opacity:1;fill-rule:nonzero;stroke:none"
         id="path164" />
      <path
         d="m 1903.28,815.051 c 0,-4.121 -3.34,-7.473 -7.47,-7.473 -4.12,0 -7.47,3.352 -7.47,7.473 0,4.129 3.35,7.469 7.47,7.469 4.13,0 7.47,-3.34 7.47,-7.469"
         style="fill:#f5f5f5;fill-opacity:1;fill-rule:nonzero;stroke:none"
         id="path166" />
      <path
         d="M 1670.33,1209.92 1336.16,875.75 c -8.76,-8.77 -22.97,-8.77 -31.74,0 l -195.32,195.32 c -8.76,8.76 -8.76,22.97 0,31.74 l 334.17,334.17 c 8.77,8.76 22.98,8.76 31.74,0 l 195.32,-195.32 c 8.77,-8.77 8.77,-22.98 0,-31.74"
         style="fill:#5c8790;fill-opacity:1;fill-rule:nonzero;stroke:none"
         id="path168" />
      <path
         d="m 1533.85,1378.14 -365.91,-365.91 -38.72,38.72 365.91,365.91 38.72,-38.72"
         style="fill:#464648;fill-opacity:1;fill-rule:nonzero;stroke:none"
         id="path170" />
      <path
         d="m 1235.6,1009.7 -14.18,-14.169 -21.17,21.169 14.17,14.17 21.18,-21.17"
         style="fill:#f5f5f5;fill-opacity:1;fill-rule:nonzero;stroke:none"
         id="path172" />
      <path
         d="m 1257.93,1032.04 -14.17,-14.18 -21.17,21.18 14.17,14.17 21.17,-21.17"
         style="fill:#f5f5f5;fill-opacity:1;fill-rule:nonzero;stroke:none"
         id="path174" />
      <path
         d="m 1280.27,1054.37 -14.17,-14.17 -21.18,21.18 14.18,14.17 21.17,-21.18"
         style="fill:#f5f5f5;fill-opacity:1;fill-rule:nonzero;stroke:none"
         id="path176" />
      <path
         d="m 1302.61,1076.71 -14.17,-14.17 -21.18,21.18 14.17,14.17 21.18,-21.18"
         style="fill:#f5f5f5;fill-opacity:1;fill-rule:nonzero;stroke:none"
         id="path178" />
      <path
         d="m 1335.46,1109.56 -14.17,-14.17 -21.18,21.17 14.17,14.18 21.18,-21.18"
         style="fill:#f5f5f5;fill-opacity:1;fill-rule:nonzero;stroke:none"
         id="path180" />
      <path
         d="m 1357.8,1131.9 -14.18,-14.17 -21.17,21.17 14.17,14.18 21.18,-21.18"
         style="fill:#f5f5f5;fill-opacity:1;fill-rule:nonzero;stroke:none"
         id="path182" />
      <path
         d="m 1380.14,1154.24 -14.18,-14.17 -21.17,21.17 14.17,14.17 21.18,-21.17"
         style="fill:#f5f5f5;fill-opacity:1;fill-rule:nonzero;stroke:none"
         id="path184" />
      <path
         d="m 1402.47,1176.58 -14.17,-14.18 -21.17,21.18 14.17,14.17 21.17,-21.17"
         style="fill:#f5f5f5;fill-opacity:1;fill-rule:nonzero;stroke:none"
         id="path186" />
      <path
         d="m 1435.32,1209.42 -14.17,-14.17 -21.18,21.18 14.18,14.17 21.17,-21.18"
         style="fill:#f5f5f5;fill-opacity:1;fill-rule:nonzero;stroke:none"
         id="path188" />
      <path
         d="m 1457.66,1231.76 -14.17,-14.17 -21.18,21.18 14.17,14.17 21.18,-21.18"
         style="fill:#f5f5f5;fill-opacity:1;fill-rule:nonzero;stroke:none"
         id="path190" />
      <path
         d="m 1480,1254.1 -14.17,-14.17 -21.18,21.17 14.17,14.18 21.18,-21.18"
         style="fill:#f5f5f5;fill-opacity:1;fill-rule:nonzero;stroke:none"
         id="path192" />
      <path
         d="m 1502.34,1276.44 -14.18,-14.17 -21.17,21.17 14.17,14.17 21.18,-21.17"
         style="fill:#f5f5f5;fill-opacity:1;fill-rule:nonzero;stroke:none"
         id="path194" />
      <path
         d="m 1524.67,1298.78 -14.17,-14.18 -21.17,21.18 14.17,14.17 21.17,-21.17"
         style="fill:#f5f5f5;fill-opacity:1;fill-rule:nonzero;stroke:none"
         id="path196" />
      <path
         d="m 1547.01,1321.12 -14.17,-14.18 -21.18,21.18 14.18,14.17 21.17,-21.17"
         style="fill:#f5f5f5;fill-opacity:1;fill-rule:nonzero;stroke:none"
         id="path198" />
      <path
         d="m 1401.09,1100.92 -142.53,-142.529 -17.17,17.168 142.53,142.531 17.17,-17.17"
         style="fill:#7fb5bc;fill-opacity:1;fill-rule:nonzero;stroke:none"
         id="path200" />
      <path
         d="m 1429.05,1072.96 -142.53,-142.53 -17.17,17.172 142.53,142.528 17.17,-17.17"
         style="fill:#7fb5bc;fill-opacity:1;fill-rule:nonzero;stroke:none"
         id="path202" />
      <path
         d="m 1456.52,1045.49 -65.34,-65.342 -17.17,17.172 65.35,65.34 17.16,-17.17"
         style="fill:#7fb5bc;fill-opacity:1;fill-rule:nonzero;stroke:none"
         id="path204" />
      <path
         d="m 1614.17,1253.96 c 14.7,-14.7 14.7,-38.54 0,-53.24 -14.7,-14.71 -38.54,-14.71 -53.24,0 -14.7,14.7 -14.7,38.54 0,53.24 14.7,14.7 38.54,14.7 53.24,0"
         style="fill:#f7cb0f;fill-opacity:1;fill-rule:nonzero;stroke:none"
         id="path206" />
      <path
         d="m 1780.6,943.879 -82.1,82.091 426,425.99 82.09,-82.09 -425.99,-425.991"
         style="fill:#78a134;fill-opacity:1;fill-rule:nonzero;stroke:none"
         id="path208" />
      <path
         d="m 1787.58,984.859 -65.09,65.091 378.03,378.03 65.09,-65.09 -378.03,-378.031"
         style="fill:#b8cc8f;fill-opacity:1;fill-rule:nonzero;stroke:none"
         id="path210" />
      <path
         d="m 2083.32,1389.8 1.27,1.03 -10.61,10.61 -324.95,-324.95 10.49,-10.49 c 16.88,16.87 44.23,16.87 61.11,0 l 262.69,262.69 c -16.87,16.88 -16.87,44.23 0,61.11"
         style="fill:#78a134;fill-opacity:1;fill-rule:nonzero;stroke:none"
         id="path212" />
      <path
         d="m 1780.6,943.879 -41.05,41.043 23.98,23.978 24.05,-24.041 378.03,378.031 -24.04,24.05 23.98,23.98 41.04,-41.05 -425.99,-425.991"
         style="fill:#5f7d2b;fill-opacity:1;fill-rule:nonzero;stroke:none"
         id="path214" />
      <path
         d="m 1787.58,984.859 -24.05,24.041 57.1,57.1 262.69,262.69 v 0 l 58.25,58.25 24.04,-24.05 -378.03,-378.031"
         style="fill:#90a173;fill-opacity:1;fill-rule:nonzero;stroke:none"
         id="path216" />
      <path
         d="m 1820.63,1066 262.69,262.69 v 0 L 1820.63,1066"
         style="fill:#5f7d2b;fill-opacity:1;fill-rule:nonzero;stroke:none"
         id="path218" />
      <path
         d="m 3094.05,2444.08 v -541.31 c 0,-30.93 -25.14,-55.99 -56.06,-55.99 h -183.87 c -30.93,0 -55.98,25.06 -55.98,55.99 v 541.31 c -1.24,21.02 13.95,34.18 32.43,52.38 22.05,21.72 68.63,53.03 68.63,94.48 v 211.68 h 93.7 v -211.68 c 0,-41.45 47.29,-73.14 68.63,-94.48 15.75,-15.74 32.52,-30.25 32.52,-52.38"
         style="fill:#53822d;fill-opacity:1;fill-rule:nonzero;stroke:none"
         id="path220" />
      <path
         d="m 2993.41,2802.61 h -94.71 c -7.03,0 -12.73,-5.7 -12.73,-12.73 v -37.05 c 0,-7.03 5.7,-12.72 12.73,-12.72 h 94.71 c 7.03,0 12.73,5.69 12.73,12.72 v 37.05 c 0,7.03 -5.7,12.73 -12.73,12.73"
         style="fill:#53822d;fill-opacity:1;fill-rule:nonzero;stroke:none"
         id="path222" />
      <path
         d="m 2898.7,2721.12 h 0.5 v 18.9883 h -0.5 z"
         style="fill:#e9e8e7;fill-opacity:1;fill-rule:nonzero;stroke:none"
         id="path224" />
      <path
         d="m 2899.2,2721.12 h 93.6914 v 18.9883 H 2899.2 Z"
         style="fill:#4c742a;fill-opacity:1;fill-rule:nonzero;stroke:none"
         id="path226" />
      <path
         d="m 3078.03,2421.79 v -502.78 c 0,-15.41 -5.91,-29.33 -15.39,-39.22 -12.75,-13.32 -34.18,-14.36 -48.26,-2.45 -45.4,38.41 -89.78,37.39 -136.28,-0.3 -14.45,-11.71 -36.04,-10.55 -48.81,2.97 -9.33,9.88 -15.13,23.7 -15.13,39 v 502.78 h 263.87"
         style="fill:#476c29;fill-opacity:1;fill-rule:nonzero;stroke:none"
         id="path228" />
      <path
         d="m 2924.35,2745.38 c -6.95,0 -12.57,5.63 -12.57,12.58 v 27.45 c 0,6.94 5.62,12.57 12.57,12.57 6.94,0 12.57,-5.63 12.57,-12.57 v -27.45 c 0,-6.95 -5.63,-12.58 -12.57,-12.58"
         style="fill:#73b42d;fill-opacity:1;fill-rule:nonzero;stroke:none"
         id="path230" />
      <path
         d="m 2972.24,2856.7 h -52.37 c -5.62,0 -10.18,-4.56 -10.18,-10.18 v -44.28 h 72.73 v 44.28 c 0,5.62 -4.56,10.18 -10.18,10.18"
         style="fill:#d18c3f;fill-opacity:1;fill-rule:nonzero;stroke:none"
         id="path232" />
      <path
         d="m 2949.06,2848.3 h -20.69 c -2.22,0 -4.02,0.16 -4.02,-5.05 v -41.01 h 28.73 v 41.01 c 0,5.21 -1.8,5.05 -4.02,5.05"
         style="fill:#e29b4a;fill-opacity:1;fill-rule:nonzero;stroke:none"
         id="path234" />
      <path
         d="m 2875.7,2421.79 h -30 v 13.28 c 0,23.91 11.21,40.15 21.09,54.48 l 2.47,3.58 c 2.93,4.31 6.54,9 10.43,14.05 13.93,18.09 31.27,40.6 31.27,66.97 v 130.48 c 0,8.29 6.72,15 15,15 8.28,0 15,-6.71 15,-15 v -130.48 c 0,-36.59 -21.68,-64.73 -37.51,-85.28 -3.5,-4.55 -6.75,-8.75 -9.41,-12.64 l -2.55,-3.71 c -8.82,-12.79 -15.79,-22.89 -15.79,-37.45 v -13.28"
         style="fill:#73b42d;fill-opacity:1;fill-rule:nonzero;stroke:none"
         id="path236" />
      <path
         d="m 2860.7,1907.41 c -8.28,0 -15,6.71 -15,15 v 499.38 h 30 v -499.38 c 0,-8.29 -6.72,-15 -15,-15"
         style="fill:#5f982f;fill-opacity:1;fill-rule:nonzero;stroke:none"
         id="path238" />
      <path
         d="m 2768.54,2256.1 c 0,-92.4 -70.3,-168.4 -160.4,-177.3 -5.8,-0.6 -11.8,-0.9 -17.8,-0.9 -6,0 -12,0.3 -17.8,0.9 -90.1,8.9 -160.4,84.9 -160.4,177.3 h 356.4"
         style="fill:#a2c1c2;fill-opacity:1;fill-rule:nonzero;stroke:none"
         id="path240" />
      <path
         d="m 2572.54,1880.5 h 35.6016 v 232.602 H 2572.54 Z"
         style="fill:#a2c1c2;fill-opacity:1;fill-rule:nonzero;stroke:none"
         id="path242" />
      <path
         d="m 2695.14,1842.1 h -209.6 l 0.4,0.4 c 21.5,25.9 53.1,41.2 86.6,42.1 1.2,0.1 2.3,0.1 3.5,0.1 h 28.6 c 1.2,0 2.3,0 3.5,-0.1 33.5,-0.9 65.1,-16.2 86.6,-42.1 l 0.4,-0.4"
         style="fill:#a2c1c2;fill-opacity:1;fill-rule:nonzero;stroke:none"
         id="path244" />
      <path
         d="m 2608.14,2078.8 v 34.3 h -17.8 v 143 h 178.2 c 0,-92.4 -70.3,-168.4 -160.4,-177.3"
         style="fill:#7d989b;fill-opacity:1;fill-rule:nonzero;stroke:none"
         id="path246" />
      <path
         d="m 2608.14,1884.6 c -1.2,0.1 -2.3,0.1 -3.5,0.1 h -14.3 v 228.4 h 17.8 v -34.3 -194.2"
         style="fill:#7d989b;fill-opacity:1;fill-rule:nonzero;stroke:none"
         id="path248" />
      <path
         d="m 2695.14,1842.1 h -104.8 v 42.6 h 14.3 c 1.2,0 2.3,0 3.5,-0.1 v 0 0 c 33.5,-0.9 65.1,-16.2 86.6,-42.1 l 0.4,-0.4"
         style="fill:#7d989b;fill-opacity:1;fill-rule:nonzero;stroke:none"
         id="path250" />
      <path
         d="m 2436.11,2167.11 c 27.99,-48.42 77.97,-82.54 136.43,-88.31 5.8,-0.6 11.8,-0.9 17.8,-0.9 6,0 12,0.3 17.8,0.9 58.46,5.77 108.44,39.89 136.43,88.31 h -308.46"
         style="fill:#da491f;fill-opacity:1;fill-rule:nonzero;stroke:none"
         id="path252" />
      <path
         d="m 2590.34,2100.61 c -71.41,0 -133.42,48.3 -150.8,117.46 -1.69,6.69 2.37,13.48 9.07,15.17 6.73,1.66 13.49,-2.39 15.17,-9.08 14.59,-58.02 66.64,-98.55 126.56,-98.55 6.9,0 12.5,-5.6 12.5,-12.5 0,-6.9 -5.6,-12.5 -12.5,-12.5"
         style="fill:#f5f5f5;fill-opacity:1;fill-rule:nonzero;stroke:none"
         id="path254" />
      <path
         d="m 2381.68,2240.95 v -221.11 c 0,-15.33 -12.49,-27.77 -27.82,-27.77 h -186.53 c -15.33,0 -27.76,12.44 -27.76,27.77 v 221.11 c 0,34.47 27.92,62.4 62.34,62.4 h 117.37 c 34.42,0 62.4,-27.93 62.4,-62.4"
         style="fill:#f5f5f5;fill-opacity:1;fill-rule:nonzero;stroke:none"
         id="path256" />
      <path
         d="m 2204.25,2303.35 h 112.691 v 19.25 H 2204.25 Z"
         style="fill:#e9e8e7;fill-opacity:1;fill-rule:nonzero;stroke:none"
         id="path258" />
      <path
         d="m 2332.05,2386.64 v -64.04 h -142.9 v 64.04 c 0,8.56 6.98,15.54 15.54,15.54 h 111.81 c 8.62,0 15.55,-6.98 15.55,-15.54"
         style="fill:#f5f5f5;fill-opacity:1;fill-rule:nonzero;stroke:none"
         id="path260" />
      <path
         d="m 2189.15,2340.16 h 71.4531 v 7.5898 H 2189.15 Z"
         style="fill:#dcdbd9;fill-opacity:1;fill-rule:nonzero;stroke:none"
         id="path262" />
      <path
         d="m 2139.57,2061.23 h 242.109 v 132.16 H 2139.57 Z"
         style="fill:#f7cb0f;fill-opacity:1;fill-rule:nonzero;stroke:none"
         id="path264" />
      <path
         d="m 2353.86,1992.07 h -93.26 v 69.16 h 121.08 v -41.39 c 0,-15.33 -12.49,-27.77 -27.82,-27.77 m 27.82,201.32 H 2260.6 v 109.96 h 56.34 2.34 c 34.42,0 62.4,-27.93 62.4,-62.4 v -47.56"
         style="fill:#dcdbd9;fill-opacity:1;fill-rule:nonzero;stroke:none"
         id="path266" />
      <path
         d="m 2260.6,2303.35 h 56.3398 v 19.25 H 2260.6 Z"
         style="fill:#d0d0ce;fill-opacity:1;fill-rule:nonzero;stroke:none"
         id="path268" />
      <path
         d="m 2332.05,2322.6 h -71.45 v 17.56 h 71.45 v -17.56 m 0,25.15 h -71.45 v 54.43 h 55.9 c 8.62,0 15.55,-6.98 15.55,-15.54 v -38.89"
         style="fill:#dcdbd9;fill-opacity:1;fill-rule:nonzero;stroke:none"
         id="path270" />
      <path
         d="m 2260.6,2340.16 h 71.4492 v 7.5898 H 2260.6 Z"
         style="fill:#c5c4c2;fill-opacity:1;fill-rule:nonzero;stroke:none"
         id="path272" />
      <path
         d="m 2260.6,2061.23 h 121.078 v 132.16 H 2260.6 Z"
         style="fill:#dcb611;fill-opacity:1;fill-rule:nonzero;stroke:none"
         id="path274" />
      <path
         d="m 2476.51,989.988 h -66.77 v 27.962 h 66.77 c 119.67,0 217.02,97.35 217.02,217.02 v 482.5 c 0,21.05 -13.62,34.2 -26.37,39.47 -12.74,5.26 -31.66,5.62 -46.55,-9.26 l -60.93,-60.93 -19.77,19.77 60.94,60.93 c 20.58,20.59 50.1,26.46 77.01,15.32 26.91,-11.15 43.63,-36.16 43.63,-65.3 v -482.5 c 0,-135.08 -109.89,-244.982 -244.98,-244.982"
         style="fill:#da491f;fill-opacity:1;fill-rule:nonzero;stroke:none"
         id="path276" />
      <path
         d="m 2462.52,1893.64 -30.2,-84.6 h -84.6 l -30.2,84.6 h 145"
         style="fill:#da491f;fill-opacity:1;fill-rule:nonzero;stroke:none"
         id="path278" />
      <path
         d="m 2338.91,1636.06 -25.25,-25.26 -48.09,30.05 43.3,43.29 30.04,-48.08"
         style="fill:#f7cb0f;fill-opacity:1;fill-rule:nonzero;stroke:none"
         id="path280" />
      <path
         d="m 2549.82,1808.44 v -0.6 c 0,-30.1 -24.4,-54.5 -54.5,-54.5 h -210.6 c -30.1,0 -54.5,24.4 -54.5,54.5 v 0.6 h 319.6"
         style="fill:#f7cb0f;fill-opacity:1;fill-rule:nonzero;stroke:none"
         id="path282" />
      <path
         d="m 2357.12,1567.04 h 65.8008 v 186.301 H 2357.12 Z"
         style="fill:#f7cb0f;fill-opacity:1;fill-rule:nonzero;stroke:none"
         id="path284" />
      <path
         d="m 2410.76,982 -198.94,10.16 v 23.62 l 198.94,10.16 V 982"
         style="fill:#f7cb0f;fill-opacity:1;fill-rule:nonzero;stroke:none"
         id="path286" />
      <path
         d="m 2565.89,1692.49 -23.9,23.89 c -3.92,3.93 -10.56,2.72 -12.84,-2.34 l -9.09,-20.07 0.06,-0.05 -141.69,-141.69 23.3,-23.3 141.69,141.68 0.05,-0.05 20.08,9.08 c 5.05,2.29 6.26,8.92 2.34,12.85"
         style="fill:#f7cb0f;fill-opacity:1;fill-rule:nonzero;stroke:none"
         id="path288" />
      <path
         d="m 2495.92,1562.04 h -211.8 c 0,20.9 6.1,40.5 16.6,56.9 7.7,12.1 17.8,22.6 29.7,30.6 8.1,5.6 17.1,10 26.7,13.1 10.3,3.5 21.4,5.3 32.9,5.3 11.5,0 22.6,-1.8 32.9,-5.3 42.4,-13.7 73,-53.6 73,-100.6"
         style="fill:#f7cb0f;fill-opacity:1;fill-rule:nonzero;stroke:none"
         id="path290" />
      <path
         d="m 2568.22,1238.24 c 0,-55.7 -25.6,-105.5 -65.6,-138.1 -30.7,-25.1 -69.8,-40.1 -112.5,-40.1 h -0.1 c -2.9,0 -5.8,0.1 -8.7,0.2 -38.9,1.9 -74.7,16.7 -103.3,40.1 -39.2,32 -64.8,80.2 -66.1,133.5 -1.3,53.7 21.1,102.1 57.6,135.5 31.7,29.1 45.2,72.9 34.5,114.6 l -19.9,78.1 h 211.8 l -19.9,-78.1 c -10.7,-41.6 2.8,-85.5 34.5,-114.6 35.4,-32.5 57.7,-79.2 57.7,-131.1"
         style="fill:#da491f;fill-opacity:1;fill-rule:nonzero;stroke:none"
         id="path292" />
      <path
         d="m 2272.66,1219.87 h -0.24 c -7.61,0 -13.83,6.1 -13.97,13.74 -0.93,54.48 15.1,107.08 43.99,144.3 20.34,26.22 28.74,65.89 21.92,103.53 l -8.18,45 c -1.38,7.59 3.66,14.87 11.26,16.24 0.85,0.16 1.69,0.24 2.53,0.24 6.59,0 12.5,-4.75 13.72,-11.49 l 8.17,-45.01 c 8.2,-45.21 -2.28,-93.36 -27.34,-125.65 -25.04,-32.28 -38.94,-78.45 -38.11,-126.68 0.12,-7.72 -6.03,-14.08 -13.75,-14.22"
         style="fill:#e7681a;fill-opacity:1;fill-rule:nonzero;stroke:none"
         id="path294" />
      <path
         d="m 2528.12,1060.44 v -0.4 h -276.2 v 0.4 c 0,17.9 10.7,33.2 26.1,39.9 5.3,2.4 11.2,3.7 17.4,3.7 h 189.2 c 6.4,0 12.6,-1.4 18,-3.9 15.1,-6.9 25.5,-22.1 25.5,-39.7"
         style="fill:#da491f;fill-opacity:1;fill-rule:nonzero;stroke:none"
         id="path296" />
      <path
         d="m 2214.52,987.551 h -0.1 c -2.86,0 -5.18,2.32 -5.18,5.179 v 22.48 c 0,2.86 2.32,5.18 5.18,5.18 h 0.1 c 2.86,0 5.18,-2.32 5.18,-5.18 v -22.48 c 0,-2.859 -2.32,-5.179 -5.18,-5.179"
         style="fill:#f7cb0f;fill-opacity:1;fill-rule:nonzero;stroke:none"
         id="path298" />
      <path
         d="m 2310.51,1567.96 c -5.16,0 -9.32,4.17 -9.32,9.32 0,43.84 35.66,79.51 79.51,79.51 5.15,0 9.32,-4.17 9.32,-9.32 0,-5.15 -4.17,-9.32 -9.32,-9.32 -33.56,0 -60.88,-27.31 -60.88,-60.87 0,-5.15 -4.16,-9.32 -9.31,-9.32"
         style="fill:#f5f5f5;fill-opacity:1;fill-rule:nonzero;stroke:none"
         id="path300" />
      <path
         d="m 2292.51,1761.19 h -7.03 c -21.87,0 -39.66,15.86 -39.66,35.34 0,5.15 4.17,9.46 9.32,9.46 5.15,0 9.32,-4.04 9.32,-9.19 v -0.27 c 0,-9.21 9.42,-16.7 21.02,-16.7 h 7.03 c 5.15,0 9.32,-4.16 9.32,-9.32 0,-5.15 -4.17,-9.32 -9.32,-9.32"
         style="fill:#f5f5f5;fill-opacity:1;fill-rule:nonzero;stroke:none"
         id="path302" />
      <path
         d="m 2432.32,1809.04 h -42.3 v 84.6 h 72.5 l -30.2,-84.6"
         style="fill:#ac3b20;fill-opacity:1;fill-rule:nonzero;stroke:none"
         id="path304" />
      <path
         d="m 2495.32,1753.34 h -105.3 v 55.1 h 159.8 v -0.6 c 0,-30.1 -24.4,-54.5 -54.5,-54.5"
         style="fill:#c3a219;fill-opacity:1;fill-rule:nonzero;stroke:none"
         id="path306" />
      <path
         d="m 2422.92,1662.64 c -10.3,3.5 -21.4,5.3 -32.9,5.3 v 85.4 h 32.9 v -90.7"
         style="fill:#c3a219;fill-opacity:1;fill-rule:nonzero;stroke:none"
         id="path308" />
      <path
         d="m 2495.92,1562.04 h -105.9 v 85.3 c 0,0.04 0,0.09 0,0.13 0,0.05 0,0.09 0,0.14 v 20.33 c 11.5,0 22.6,-1.8 32.9,-5.3 v 0 0 c 42.4,-13.7 73,-53.6 73,-100.6"
         style="fill:#c3a219;fill-opacity:1;fill-rule:nonzero;stroke:none"
         id="path310" />
      <path
         d="m 2502.62,1100.14 c -5.4,2.5 -11.6,3.9 -18,3.9 h -94.6 v 458 h 105.9 v 0 l -19.9,-78.1 c -2.43,-9.42 -3.61,-18.97 -3.62,-28.43 -0.03,-32.3 13.6,-63.66 38.12,-86.17 35.4,-32.5 57.7,-79.2 57.7,-131.1 0,-55.7 -25.6,-105.5 -65.6,-138.1 v 0"
         style="fill:#ac3b20;fill-opacity:1;fill-rule:nonzero;stroke:none"
         id="path312" />
      <path
         d="m 2528.12,1060.04 h -138.1 v 44 h 94.6 c 6.4,0 12.6,-1.4 18,-3.9 v 0 0 0 c 15.1,-6.9 25.5,-22.1 25.5,-39.7 v -0.4"
         style="fill:#ac3b20;fill-opacity:1;fill-rule:nonzero;stroke:none"
         id="path314" />
      <path
         d="m 2390.02,1647.34 v 0.27 c 0,-0.05 0,-0.09 0,-0.14 0,-0.04 0,-0.09 0,-0.13"
         style="fill:#c2c0be;fill-opacity:1;fill-rule:nonzero;stroke:none"
         id="path316" />
      <path
         d="m 2107.33,1786.08 c -11.73,-3.15 -23.74,3.81 -26.89,15.54 l -83.41,-22.36 -68.96,-18.46 -4.1,-1.1 -155,-41.56 c 3.15,-11.72 -3.81,-23.74 -15.54,-26.89 -11.72,-3.15 -23.82,3.81 -26.97,15.53 -2.05,7.85 0.37,15.76 5.72,21.11 -7.26,1.98 -13.41,7.62 -15.47,15.46 -3.15,11.73 3.82,23.82 15.54,26.9 11.73,3.15 23.75,-3.81 26.9,-15.54 l 91.68,24.55 73.14,19.64 4.1,1.1 142.54,38.19 c -3.15,11.72 3.81,23.81 15.54,26.97 11.73,3.07 23.82,-3.89 26.97,-15.61 2.05,-7.85 -0.37,-15.76 -5.72,-21.11 7.26,-1.98 13.42,-7.62 15.47,-15.46 3.15,-11.73 -3.81,-23.75 -15.54,-26.9"
         style="fill:#cdccca;fill-opacity:1;fill-rule:nonzero;stroke:none"
         id="path318" />
      <path
         d="m 2131.15,1743.35 c -2.05,-7.84 -8.21,-13.48 -15.47,-15.46 5.28,-5.35 7.77,-13.26 5.72,-21.11 -3.15,-11.72 -15.24,-18.68 -26.97,-15.53 -11.72,3.15 -18.69,15.17 -15.53,26.89 l -150.83,40.46 -4.1,1.1 -73.14,19.56 -83.4,22.36 c -3.15,-11.73 -15.17,-18.69 -26.9,-15.54 -11.72,3.15 -18.68,15.17 -15.61,26.9 2.13,7.84 8.21,13.48 15.54,15.46 -5.35,5.35 -7.77,13.26 -5.72,21.11 3.15,11.72 15.25,18.68 26.97,15.61 11.73,-3.16 18.69,-15.25 15.54,-26.97 l 146.72,-39.29 4.1,-1.17 68.96,-18.47 91.69,-24.55 c 3.15,11.73 15.17,18.69 26.89,15.54 11.73,-3.08 18.69,-15.17 15.54,-26.9"
         style="fill:#cdccca;fill-opacity:1;fill-rule:nonzero;stroke:none"
         id="path320" />
      <path
         d="m 1989.27,1946.94 c -18.69,0 -33.79,15.17 -33.79,33.79 0,18.61 15.1,33.78 33.79,33.78 18.61,0 33.78,-15.17 33.78,-33.78 0,-18.62 -15.17,-33.79 -33.78,-33.79 m -130.31,0 c -18.68,0 -33.78,15.17 -33.78,33.79 0,18.61 15.1,33.78 33.78,33.78 18.62,0 33.72,-15.17 33.72,-33.78 0,-18.62 -15.1,-33.79 -33.72,-33.79 m 49.76,-37.96 10.7,20.01 c 1.76,3.37 5.5,4.47 8.65,3.44 1.69,-0.51 3.23,-1.68 4.18,-3.44 l 10.7,-20.01 c 2.56,-4.84 -0.95,-10.7 -6.45,-10.7 h -21.33 c -5.49,0 -9.01,5.86 -6.45,10.7 m 19.35,270.28 c -1.32,0.15 -2.64,0.15 -3.95,0.15 -80.47,0 -145.7,-65.23 -145.7,-145.7 0,-12.53 1.76,-24.55 4.69,-36.13 h 0.08 c 6,0 10.77,-4.76 10.77,-10.77 v -34.44 c 0,-22.21 18.03,-40.17 40.23,-40.17 h 11.07 c 6.01,0 10.77,-4.83 10.77,-10.77 v -37.08 c 0,-5.94 4.84,-10.77 10.77,-10.77 h 114.55 c 5.94,0 10.78,4.83 10.78,10.77 v 37.08 c 0,5.94 4.83,10.77 10.77,10.77 h 11.14 c 22.2,0 40.16,17.96 40.16,40.17 v 34.44 c 0,6.01 4.84,10.77 10.77,10.77 h 0.07 c 3.01,11.58 4.69,23.6 4.69,36.13 0,79.15 -63.02,143.5 -141.66,145.55"
         style="fill:#cdccca;fill-opacity:1;fill-rule:nonzero;stroke:none"
         id="path322" />
      <path
         d="m 1887.03,1842.86 h -11.27 c -4.75,0 -8.6,3.85 -8.6,8.59 v 4.3 c 0,4.74 3.85,8.59 8.6,8.59 h 11.27 c 4.75,0 8.6,-3.85 8.6,-8.59 v -4.3 c 0,-4.74 -3.85,-8.59 -8.6,-8.59"
         style="fill:#cdccca;fill-opacity:1;fill-rule:nonzero;stroke:none"
         id="path324" />
      <path
         d="m 1915.5,1842.86 h -11.28 c -4.74,0 -8.59,3.85 -8.59,8.59 v 4.3 c 0,4.74 3.85,8.59 8.59,8.59 h 11.28 c 4.75,0 8.59,-3.85 8.59,-8.59 v -4.3 c 0,-4.74 -3.84,-8.59 -8.59,-8.59"
         style="fill:#cdccca;fill-opacity:1;fill-rule:nonzero;stroke:none"
         id="path326" />
      <path
         d="m 1952.55,1855.77 v -4.32 c 0,-4.76 -3.81,-8.57 -8.57,-8.57 h -11.29 c -1.69,0 -3.3,0.51 -4.62,1.32 -2.34,1.53 -3.95,4.17 -3.95,7.25 v 4.32 c 0,3.01 1.61,5.72 3.95,7.26 1.32,0.81 2.93,1.32 4.62,1.32 h 11.29 c 4.76,0 8.57,-3.88 8.57,-8.58"
         style="fill:#cdccca;fill-opacity:1;fill-rule:nonzero;stroke:none"
         id="path328" />
      <path
         d="m 1981.06,1855.77 v -4.32 c 0,-4.76 -3.89,-8.57 -8.65,-8.57 h -11.29 c -4.69,0 -8.57,3.81 -8.57,8.57 v 4.32 c 0,4.7 3.88,8.58 8.57,8.58 h 11.29 c 4.76,0 8.65,-3.88 8.65,-8.58"
         style="fill:#cdccca;fill-opacity:1;fill-rule:nonzero;stroke:none"
         id="path330" />
      <path
         d="m 1936.5,1898.28 h -8.43 v 34.15 c 1.69,-0.51 3.23,-1.68 4.18,-3.44 l 10.7,-20.01 c 2.56,-4.84 -0.95,-10.7 -6.45,-10.7"
         style="fill:#e9e8e7;fill-opacity:1;fill-rule:nonzero;stroke:none"
         id="path332" />
      <path
         d="m 1981.35,1853.58 h -0.29 v 2.19 c 0,4.7 -3.89,8.58 -8.65,8.58 h -11.29 c -4.69,0 -8.57,-3.88 -8.57,-8.58 v -2.19 2.19 c 0,4.7 -3.81,8.58 -8.57,8.58 h -11.29 c -1.69,0 -3.3,-0.51 -4.62,-1.32 v 35.25 h 8.43 c 5.5,0 9.01,5.86 6.45,10.7 l -10.7,20.01 c -0.95,1.76 -2.49,2.93 -4.18,3.44 v 232.52 c 4.74,3.08 8.16,8.01 9.25,13.78 74.27,-6.63 132.41,-68.99 132.41,-145.02 0,-12.53 -1.68,-24.55 -4.69,-36.13 h -0.07 c -5.93,0 -10.77,-4.76 -10.77,-10.77 v -34.44 c 0,-22.21 -17.96,-40.17 -40.16,-40.17 h -11.14 c -5.94,0 -10.77,-4.83 -10.77,-10.77 v -37.08 c 0,-5.94 -4.84,-10.77 -10.78,-10.77 m -25.87,127.15 v 0 c 0,-18.62 15.1,-33.79 33.79,-33.79 18.61,0 33.78,15.17 33.78,33.79 v 0 0 c 0,18.61 -15.17,33.78 -33.78,33.78 -18.69,0 -33.79,-15.17 -33.79,-33.78 v 0"
         style="fill:#b7b6b5;fill-opacity:1;fill-rule:nonzero;stroke:none"
         id="path334" />
      <path
         d="m 1943.98,1842.88 h -11.29 c -1.69,0 -3.3,0.51 -4.62,1.32 v 18.83 c 1.32,0.81 2.93,1.32 4.62,1.32 h 11.29 c 4.76,0 8.57,-3.88 8.57,-8.58 v -2.19 -2.13 c 0,-4.76 -3.81,-8.57 -8.57,-8.57"
         style="fill:#b7b6b5;fill-opacity:1;fill-rule:nonzero;stroke:none"
         id="path336" />
      <path
         d="m 1972.41,1842.88 h -11.29 c -4.69,0 -8.57,3.81 -8.57,8.57 v 2.13 2.19 c 0,4.7 3.88,8.58 8.57,8.58 h 11.29 c 4.76,0 8.65,-3.88 8.65,-8.58 v -2.19 -2.13 c 0,-4.76 -3.89,-8.57 -8.65,-8.57"
         style="fill:#b7b6b5;fill-opacity:1;fill-rule:nonzero;stroke:none"
         id="path338" />
      <path
         d="m 1997.03,1779.26 -68.96,18.47 v 2.27 l 142.54,38.19 v 0 c -0.51,1.92 -0.76,3.85 -0.75,5.76 0.02,9.69 6.49,18.57 16.29,21.21 1.88,0.49 3.76,0.72 5.62,0.72 9.75,0 18.7,-6.48 21.35,-16.33 0.49,-1.87 0.72,-3.75 0.73,-5.59 0,-5.88 -2.37,-11.45 -6.45,-15.52 v 0 0 c 7.26,-1.98 13.42,-7.62 15.47,-15.46 0.51,-1.93 0.76,-3.86 0.76,-5.76 -0.02,-9.68 -6.5,-18.51 -16.3,-21.14 -1.91,-0.51 -3.83,-0.76 -5.71,-0.76 -9.69,0 -18.55,6.48 -21.18,16.3 l -83.41,-22.36"
         style="fill:#b7b6b5;fill-opacity:1;fill-rule:nonzero;stroke:none"
         id="path340" />
      <path
         d="m 2100.15,1690.49 c -1.89,0 -3.81,0.24 -5.72,0.76 -9.8,2.63 -16.27,11.46 -16.29,21.14 -0.01,1.9 0.24,3.83 0.76,5.75 v 0 0 l -150.83,40.46 v 39.13 l 68.96,-18.47 91.69,-24.55 c 2.63,9.82 11.49,16.3 21.18,16.3 1.89,0 3.8,-0.25 5.71,-0.76 9.8,-2.57 16.28,-11.45 16.3,-21.14 0,-1.9 -0.24,-3.83 -0.76,-5.76 -2.05,-7.84 -8.21,-13.48 -15.47,-15.46 v 0 0 c 4.02,-4.08 6.43,-9.64 6.44,-15.52 0,-1.84 -0.23,-3.72 -0.72,-5.59 -2.64,-9.81 -11.54,-16.29 -21.25,-16.29"
         style="fill:#b7b6b5;fill-opacity:1;fill-rule:nonzero;stroke:none"
         id="path342" />
      <path
         d="m 1536.74,2732.49 h 400.953 v 132.242 H 1536.74 Z"
         style="fill:#cdccca;fill-opacity:1;fill-rule:nonzero;stroke:none"
         id="path344" />
      <path
         d="m 1937.69,2864.73 -39.01,-127.01 -0.62,-1.54 -1.43,-3.69 H 1577.9 l -1.44,3.69 -0.72,1.54 -39,127.01 h 400.95"
         style="fill:#e9e8e7;fill-opacity:1;fill-rule:nonzero;stroke:none"
         id="path346" />
      <path
         d="m 1628.66,2600.12 h 41.1484 v 137.57 H 1628.66 Z"
         style="fill:#e9e8e7;fill-opacity:1;fill-rule:nonzero;stroke:none"
         id="path348" />
      <path
         d="m 1537.5,2302.36 h 44.1914 v 278.02 H 1537.5 Z"
         style="fill:#f5f5f5;fill-opacity:1;fill-rule:nonzero;stroke:none"
         id="path350" />
      <path
         d="m 1537.5,2580.38 h 44.1914 v 157.313 H 1537.5 Z"
         style="fill:#fab237;fill-opacity:1;fill-rule:nonzero;stroke:none"
         id="path352" />
      <path
         d="m 1581.2,2734.64 h -0.02 c -1.54,0.72 -3.08,1.13 -4.72,1.54 -3.28,0.89 -6.72,1.39 -10.25,1.51 h 14.99 v -3.05"
         style="fill:#e4a231;fill-opacity:1;fill-rule:nonzero;stroke:none"
         id="path354" />
      <path
         d="m 1581.69,2302.36 h 44.1992 v 278.02 H 1581.69 Z"
         style="fill:#f5f5f5;fill-opacity:1;fill-rule:nonzero;stroke:none"
         id="path356" />
      <path
         d="m 1581.69,2580.38 h 44.1992 v 157.313 H 1581.69 Z"
         style="fill:#fab237;fill-opacity:1;fill-rule:nonzero;stroke:none"
         id="path358" />
      <path
         d="m 1625.4,2646.91 c -7.99,9.24 -12.81,21.33 -12.81,34.56 v 8.21 c 0,10.25 -3.17,19.79 -8.8,27.68 v 20.33 h 21.61 v -90.78"
         style="fill:#e4a231;fill-opacity:1;fill-rule:nonzero;stroke:none"
         id="path360" />
      <path
         d="m 1625.89,2302.36 h 44.1875 v 278.02 H 1625.89 Z"
         style="fill:#f5f5f5;fill-opacity:1;fill-rule:nonzero;stroke:none"
         id="path362" />
      <path
         d="m 1625.89,2580.38 h 44.1875 v 157.313 H 1625.89 Z"
         style="fill:#fab237;fill-opacity:1;fill-rule:nonzero;stroke:none"
         id="path364" />
      <path
         d="m 1669.59,2628.3 h -3.93 c -6.16,0 -12.11,1.02 -17.65,3.08 -0.01,0 -0.02,0 -0.03,0.01 v 106.3 h 21.61 V 2628.3"
         style="fill:#e4a231;fill-opacity:1;fill-rule:nonzero;stroke:none"
         id="path366" />
      <path
         d="m 1670.08,2302.36 h 44.1914 v 278.02 H 1670.08 Z"
         style="fill:#f5f5f5;fill-opacity:1;fill-rule:nonzero;stroke:none"
         id="path368" />
      <path
         d="m 1670.08,2580.38 h 44.1914 v 157.313 H 1670.08 Z"
         style="fill:#fab237;fill-opacity:1;fill-rule:nonzero;stroke:none"
         id="path370" />
      <path
         d="m 1692.17,2628.3 h 21.6094 v 109.391 H 1692.17 Z"
         style="fill:#e4a231;fill-opacity:1;fill-rule:nonzero;stroke:none"
         id="path372" />
      <path
         d="m 1714.27,2302.36 h 44.1914 v 278.02 H 1714.27 Z"
         style="fill:#f5f5f5;fill-opacity:1;fill-rule:nonzero;stroke:none"
         id="path374" />
      <path
         d="m 1714.27,2580.38 h 44.1914 v 157.313 H 1714.27 Z"
         style="fill:#fab237;fill-opacity:1;fill-rule:nonzero;stroke:none"
         id="path376" />
      <path
         d="m 1736.36,2628.3 h 0.031 v 109.391 h -0.031 z"
         style="fill:#e4a231;fill-opacity:1;fill-rule:nonzero;stroke:none"
         id="path378" />
      <path
         d="m 1758.46,2351.74 h 44.1875 v 278.031 H 1758.46 Z"
         style="fill:#f5f5f5;fill-opacity:1;fill-rule:nonzero;stroke:none"
         id="path380" />
      <path
         d="m 1758.46,2629.77 h 44.1875 v 157.313 H 1758.46 Z"
         style="fill:#fab237;fill-opacity:1;fill-rule:nonzero;stroke:none"
         id="path382" />
      <path
         d="m 1802.65,2412.89 h 44.1914 v 278.02 H 1802.65 Z"
         style="fill:#f5f5f5;fill-opacity:1;fill-rule:nonzero;stroke:none"
         id="path384" />
      <path
         d="m 1802.7,2690.91 h 44.1406 v 157.262 H 1802.7 Z"
         style="fill:#fab237;fill-opacity:1;fill-rule:nonzero;stroke:none"
         id="path386" />
      <path
         d="m 1846.84,2323.52 h 44.1914 v 278.031 H 1846.84 Z"
         style="fill:#f5f5f5;fill-opacity:1;fill-rule:nonzero;stroke:none"
         id="path388" />
      <path
         d="m 1846.84,2601.55 h 44.1914 v 157.309 H 1846.84 Z"
         style="fill:#fab237;fill-opacity:1;fill-rule:nonzero;stroke:none"
         id="path390" />
      <path
         d="m 1891.03,2302.36 h 44.1992 v 278.02 H 1891.03 Z"
         style="fill:#f5f5f5;fill-opacity:1;fill-rule:nonzero;stroke:none"
         id="path392" />
      <path
         d="m 1891.03,2580.38 h 44.1992 v 157.313 H 1891.03 Z"
         style="fill:#fab237;fill-opacity:1;fill-rule:nonzero;stroke:none"
         id="path394" />
      <path
         d="m 1937.69,2737.72 v -137.55 h -400.95 v 137.55 h 27.81 c 4.11,0 8.11,-0.51 11.91,-1.54 1.64,-0.41 3.18,-0.82 4.72,-1.54 l 0.52,-0.1 c 1.54,-0.62 3.08,-1.23 4.51,-2.05 7.09,-3.49 13.14,-8.73 17.56,-15.09 5.64,-7.91 8.82,-17.45 8.82,-27.72 v -8.21 c 0,-13.24 4.83,-25.35 12.84,-34.59 l 0.41,-0.41 c 0.82,-1.03 1.84,-2.06 2.87,-3.08 5.44,-5.34 11.91,-9.45 19.3,-12.01 5.54,-2.06 11.49,-3.08 17.65,-3.08 h 143.1 c 5.54,0 10.98,0.82 16.01,2.46 8.21,2.57 15.6,7.19 21.56,13.14 l 0.51,0.62 c 9.24,9.44 14.99,22.58 14.99,36.95 v 8.21 c 0,9.14 2.56,17.76 7.08,25.05 4.62,7.59 11.29,13.75 19.3,17.76 l 2.36,1.13 0.51,0.3 c 2.26,0.93 4.52,1.75 6.98,2.26 3.8,1.03 7.7,1.54 11.81,1.54 h 27.82"
         style="fill:#f5f5f5;fill-opacity:1;fill-rule:nonzero;stroke:none"
         id="path396" />
      <path
         d="m 1937.69,2600.17 v -417.48 c 0,-11.7 -9.45,-21.14 -21.15,-21.14 h -358.66 c -11.7,0 -21.14,9.44 -21.14,21.14 v 417.48 h 400.95"
         style="fill:#f5f5f5;fill-opacity:1;fill-rule:nonzero;stroke:none"
         id="path398" />
      <path
         d="m 1536.74,2555.52 h 400.953 v 45.9805 H 1536.74 Z"
         style="fill:#5c8790;fill-opacity:1;fill-rule:nonzero;stroke:none"
         id="path400" />
      <path
         d="m 1937.69,2323.53 v -140.84 c 0,-11.7 -9.45,-21.14 -21.15,-21.14 h -358.66 c -11.7,0 -21.14,9.44 -21.14,21.14 v 140.84 l 0.71,0.62 22.18,19.4 21.55,18.78 0.52,0.51 22.07,19.3 21.66,18.89 0.41,0.41 22.17,19.3 21.55,18.89 0.52,0.41 22.07,19.3 21.66,18.99 0.41,0.3 22.17,19.4 21.56,-18.68 0.51,-0.41 22.07,-19.19 21.66,-18.79 0.51,-0.41 22.07,-19.09 9.86,-8.63 12.21,-10.57 22.07,-19.09 21.66,-18.79 0.51,-0.41 22.07,-19.19 21.56,-18.68 0.51,-0.42 2.47,-2.15"
         style="fill:#5c8790;fill-opacity:1;fill-rule:nonzero;stroke:none"
         id="path402" />
      <path
         d="m 1802.65,2628.3 v 0 104.19 h 0.05 v -41.58 h 22.07 v 0 h -22.12 v -62.61 m 44.19,16.22 v 46.39 h -0.51 v 0 h 0.51 v 41.58 0 -87.97 0"
         style="fill:#e9e8e7;fill-opacity:1;fill-rule:nonzero;stroke:none"
         id="path404" />
      <path
         d="m 1908.22,2737.69 h -9.55 l 0.01,0.03 39.01,127.01 v -127.01 h -27.82 c -0.56,0 -1.11,-0.01 -1.65,-0.03"
         style="fill:#b7b6b5;fill-opacity:1;fill-rule:nonzero;stroke:none"
         id="path406" />
      <path
         d="m 1846.84,2732.49 v 0 115.68 h -44.14 v -115.68 h -0.05 v 54.59 h -44.19 v -54.59 5.2 h -22.07 v 127.04 h 201.3 l -39.01,-127.01 -0.01,-0.03 h -7.64 v -3.8 24.97 h -44.19 v -26.37"
         style="fill:#d0d0ce;fill-opacity:1;fill-rule:nonzero;stroke:none"
         id="path408" />
      <path
         d="m 1758.46,2628.3 h -0.49 v 109.39 h -21.58 22.07 v -5.2 -104.19"
         style="fill:#e4a231;fill-opacity:1;fill-rule:nonzero;stroke:none"
         id="path410" />
      <path
         d="m 1736.39,2628.3 h 21.5781 v 109.391 H 1736.39 Z"
         style="fill:#cb912d;fill-opacity:1;fill-rule:nonzero;stroke:none"
         id="path412" />
      <path
         d="m 1802.65,2628.3 h -0.49 v 1.47 h 0.49 v -1.47 m -22.09,0 h -22.1 v 1.47 h 22.1 v -1.47"
         style="fill:#dcdbd9;fill-opacity:1;fill-rule:nonzero;stroke:none"
         id="path414" />
      <path
         d="m 1802.65,2629.77 v 0 h -0.49 v 157.31 h -21.6 v -157.31 h -22.1 v 102.72 54.59 h 44.19 v -54.59 -102.72"
         style="fill:#e4a231;fill-opacity:1;fill-rule:nonzero;stroke:none"
         id="path416" />
      <path
         d="m 1780.56,2628.3 h 21.6016 v 1.4688 H 1780.56 Z"
         style="fill:#c5c4c2;fill-opacity:1;fill-rule:nonzero;stroke:none"
         id="path418" />
      <path
         d="m 1780.56,2629.77 h 21.6016 v 157.313 H 1780.56 Z"
         style="fill:#cb912d;fill-opacity:1;fill-rule:nonzero;stroke:none"
         id="path420" />
      <path
         d="m 1808.76,2628.3 h -6.11 v 62.61 h 22.12 v -60.15 c -5.03,-1.64 -10.47,-2.46 -16.01,-2.46 m 37.57,15.6 v 47.01 h 0.51 v -46.39 0 l -0.51,-0.62 v 0"
         style="fill:#dcdbd9;fill-opacity:1;fill-rule:nonzero;stroke:none"
         id="path422" />
      <path
         d="m 1846.84,2690.91 h -0.51 v 157.26 h -21.56 v -157.26 h -22.07 v 41.58 115.68 h 44.14 v -115.68 -41.58"
         style="fill:#e4a231;fill-opacity:1;fill-rule:nonzero;stroke:none"
         id="path424" />
      <path
         d="m 1846.33,2690.91 h -21.56 v 0 h 21.56 v 0"
         style="fill:#d0d0ce;fill-opacity:1;fill-rule:nonzero;stroke:none"
         id="path426" />
      <path
         d="m 1824.77,2630.76 v 60.15 h 21.56 v -47.01 c -5.96,-5.95 -13.35,-10.57 -21.56,-13.14 v 0"
         style="fill:#c5c4c2;fill-opacity:1;fill-rule:nonzero;stroke:none"
         id="path428" />
      <path
         d="m 1824.77,2690.91 h 21.5586 v 157.262 H 1824.77 Z"
         style="fill:#cb912d;fill-opacity:1;fill-rule:nonzero;stroke:none"
         id="path430" />
      <path
         d="m 1846.84,2644.52 v 114.34 h 44.19 v -24.97 l -0.46,-0.27 -0.03,-0.02 v 25.26 h -21.6 v -44.09 c -0.01,-0.01 -0.02,-0.03 -0.03,-0.04 -4.52,-7.29 -7.08,-15.91 -7.08,-25.05 v -8.21 c 0,-14.37 -5.75,-27.51 -14.99,-36.95"
         style="fill:#e4a231;fill-opacity:1;fill-rule:nonzero;stroke:none"
         id="path432" />
      <path
         d="m 1868.94,2714.77 v 44.09 h 21.6 v -25.26 l -2.33,-1.11 c -7.99,-4 -14.65,-10.14 -19.27,-17.72"
         style="fill:#cb912d;fill-opacity:1;fill-rule:nonzero;stroke:none"
         id="path434" />
      <path
         d="m 1891.03,2733.89 v 3.8 h 17.19 c -3.51,-0.12 -6.87,-0.62 -10.16,-1.51 -2.46,-0.51 -4.72,-1.33 -6.98,-2.26 l -0.05,-0.03"
         style="fill:#e4a231;fill-opacity:1;fill-rule:nonzero;stroke:none"
         id="path436" />
      <path
         d="m 1937.69,2601.5 h -201.3 v 26.8 h 72.37 c 5.54,0 10.98,0.82 16.01,2.46 v 0 c 8.21,2.57 15.6,7.19 21.56,13.14 v 0 l 0.51,0.62 v 0 0 c 9.24,9.44 14.99,22.58 14.99,36.95 v 8.21 c 0,9.14 2.56,17.76 7.08,25.05 0.01,0.01 0.02,0.03 0.03,0.04 4.62,7.58 11.28,13.72 19.27,17.72 l 2.33,1.11 0.03,0.02 0.46,0.27 0.05,0.03 c 2.26,0.93 4.52,1.75 6.98,2.26 3.29,0.89 6.65,1.39 10.16,1.51 0.54,0.02 1.09,0.03 1.65,0.03 h 27.82 V 2601.5"
         style="fill:#dcdbd9;fill-opacity:1;fill-rule:nonzero;stroke:none"
         id="path438" />
      <path
         d="m 1937.69,2323.53 -2.47,2.15 -0.51,0.42 -21.56,18.68 -22.07,19.19 -0.51,0.41 -21.66,18.79 -22.07,19.09 -12.21,10.57 -9.86,8.63 -22.07,19.09 -0.51,0.41 -21.66,18.79 -22.07,19.19 -0.51,0.41 -21.56,18.68 v 57.49 h 201.3 v -231.99"
         style="fill:#dcdbd9;fill-opacity:1;fill-rule:nonzero;stroke:none"
         id="path440" />
      <path
         d="m 1736.39,2555.52 h 201.301 v 45.9805 H 1736.39 Z"
         style="fill:#537981;fill-opacity:1;fill-rule:nonzero;stroke:none"
         id="path442" />
      <path
         d="m 1916.54,2161.55 h -180.15 v 336.48 l 21.56,-18.68 0.51,-0.41 22.07,-19.19 21.66,-18.79 0.51,-0.41 22.07,-19.09 9.86,-8.63 12.21,-10.57 22.07,-19.09 21.66,-18.79 0.51,-0.41 22.07,-19.19 21.56,-18.68 0.51,-0.42 2.47,-2.15 v -140.84 c 0,-1.35 -0.13,-2.68 -0.37,-3.96 -1.09,-5.77 -4.51,-10.7 -9.25,-13.78 -3.31,-2.15 -7.27,-3.4 -11.53,-3.4"
         style="fill:#537981;fill-opacity:1;fill-rule:nonzero;stroke:none"
         id="path444" />
      <path
         d="m 1783.53,3059.8 -346.46,24.78 20.93,28.86 h 382.54 v -0.58 c 0,-30.88 -26.2,-55.27 -57.01,-53.06"
         style="fill:#3a5b6a;fill-opacity:1;fill-rule:nonzero;stroke:none"
         id="path446" />
      <path
         d="m 1156.45,3113.44 c -18.9,0 -29.61,-21.62 -18.26,-36.73 42.01,-55.86 108.7,-92.05 183.98,-92.05 90.73,0 168.99,52.57 206.58,128.78 h -372.3"
         style="fill:#3a5b6a;fill-opacity:1;fill-rule:nonzero;stroke:none"
         id="path448" />
      <path
         d="m 1239.66,3075.66 h -84.62 c -5.52,0 -10,4.47 -10,10 0,5.52 4.48,10 10,10 h 84.62 c 5.53,0 10,-4.48 10,-10 0,-5.53 -4.47,-10 -10,-10"
         style="fill:#a2c1c2;fill-opacity:1;fill-rule:nonzero;stroke:none"
         id="path450" />
      <path
         d="m 1352.37,2826.05 c 0,-30.94 -25.08,-56.02 -56.02,-56.02 -30.94,0 -56.02,25.08 -56.02,56.02 0,30.94 56.02,127.91 56.02,127.91 0,0 56.02,-96.97 56.02,-127.91"
         style="fill:#f7cb0f;fill-opacity:1;fill-rule:nonzero;stroke:none"
         id="path452" />
      <path
         d="m 1328.03,2801.71 c 0,-17.5 -14.18,-31.68 -31.68,-31.68 -17.5,0 -31.68,14.18 -31.68,31.68 0,17.49 31.68,72.33 31.68,72.33 0,0 31.68,-54.84 31.68,-72.33"
         style="fill:#f5f5f5;fill-opacity:1;fill-rule:nonzero;stroke:none"
         id="path454" />
      <path
         d="m 1361.4,2720.53 c 0,-14.25 11.55,-25.8 25.79,-25.8 14.25,0 25.79,11.55 25.79,25.8 0,14.24 -11.54,25.79 -25.79,25.79 -14.24,0 -25.79,-11.55 -25.79,-25.79"
         style="fill:#3a5b6a;fill-opacity:1;fill-rule:nonzero;stroke:none"
         id="path456" />
      <path
         d="m 1361.4,2676.68 h 86.4 v 18.05 h -86.4 v -18.05"
         style="fill:#3a5b6a;fill-opacity:1;fill-rule:nonzero;stroke:none"
         id="path458" />
      <path
         d="m 1387.19,2671.52 h -130.25 v 90.27 h 88.98 c 22.8,0 41.27,-18.47 41.27,-41.26 v -49.01"
         style="fill:#e9e8e7;fill-opacity:1;fill-rule:nonzero;stroke:none"
         id="path460" />
      <path
         d="m 1256.94,2644.44 h 166.36 v 27.08 h -166.36 v -27.08"
         style="fill:#b1b1b0;fill-opacity:1;fill-rule:nonzero;stroke:none"
         id="path462" />
      <path
         d="m 1281.44,2404.27 h 117.36 c 13.53,0 24.5,10.97 24.5,24.51 v 215.66 h -166.36 v -215.66 c 0,-13.54 10.97,-24.51 24.5,-24.51"
         style="fill:#3a5b6a;fill-opacity:1;fill-rule:nonzero;stroke:none"
         id="path464" />
      <path
         d="m 1743.14,658.199 c -361.81,0 -693.13,129.61 -950.386,345.021 -67.277,56.29 -129.492,118.51 -185.781,185.78 -215.41,257.26 -345.028,588.7 -345.028,950.39 0,191.09 36.172,373.91 102.09,541.67 216.274,550.07 752.265,939.53 1379.105,939.53 175.04,0 343.05,-30.37 498.84,-86.17 166.27,-59.37 318.85,-147.63 451.55,-258.98 67.28,-56.17 129.49,-118.38 185.66,-185.66 215.53,-257.26 345.15,-588.7 345.15,-950.39 0,-818.06 -663.14,-1481.191 -1481.2,-1481.191 m 696.59,3079.411 c -213.31,93.08 -448.96,144.8 -696.59,144.8 C 953.848,3882.41 287.008,3357.78 72.4609,2638.35 25.3047,2480.22 0,2312.83 0,2139.39 0,1176.66 780.406,396.25 1743.14,396.25 c 962.61,0 1743.02,780.41 1743.02,1743.14 0,714.98 -430.57,1329.36 -1046.43,1598.22"
         style="fill:#da491f;fill-opacity:1;fill-rule:nonzero;stroke:none"
         id="path466" />
      <path
         d="M 663.246,873.738 477.504,1059.49 2822.98,3404.96 3008.72,3219.22 663.246,873.738"
         style="fill:#da491f;fill-opacity:1;fill-rule:nonzero;stroke:none"
         id="path468" />
      <path
         d="m 1044.63,204.398 h 24.65 L 1194.43,32.4805 V 204.398 h 20.45 V 4.48047 h -24.65 L 1065.08,176.398 V 4.48047 h -20.45 V 204.398"
         style="fill:#100f0d;fill-opacity:1;fill-rule:nonzero;stroke:none"
         id="path470" />
      <path
         d="m 1434.12,105.84 c 0,43.961 -36.68,80.91 -82.89,80.91 -46.2,0 -82.88,-36.949 -82.88,-80.91 0,-46.1994 36.68,-83.1603 82.88,-83.1603 46.21,0 82.89,36.9609 82.89,83.1603 z m 21.28,0 c 0,-57.1212 -46.77,-103.60172 -104.17,-103.60172 -57.4,0 -104.16,46.48052 -104.16,103.60172 0,54.879 46.76,101.351 104.16,101.351 57.4,0 104.17,-46.472 104.17,-101.351"
         style="fill:#100f0d;fill-opacity:1;fill-rule:nonzero;stroke:none"
         id="path472" />
      <path
         d="m 1624.79,24.0781 c 57.4,0 80.36,22.961 80.36,80.3629 0,57.399 -22.96,80.36 -80.36,80.36 h -32.76 V 24.0781 Z m -53.2,180.3199 h 53.2 c 72.52,0 101.64,-28.558 101.64,-99.957 0,-71.4019 -29.12,-99.96053 -101.64,-99.96053 h -53.2 V 204.398"
         style="fill:#100f0d;fill-opacity:1;fill-rule:nonzero;stroke:none"
         id="path474" />
      <path
         d="m 1825.54,99.6719 c 25.48,0 42.56,17.0781 42.56,42.5661 0,25.481 -16.8,42.563 -42.56,42.563 h -45.08 V 99.6719 Z m -65.52,104.7261 h 65.52 c 38.08,0 63.84,-24.918 63.84,-62.16 0,-31.078 -17.64,-53.4763 -45.92,-60.1989 L 1904.5,4.48047 h -27.16 L 1817.7,80.0703 h -37.24 V 4.48047 h -20.44 V 204.398"
         style="fill:#100f0d;fill-opacity:1;fill-rule:nonzero;stroke:none"
         id="path476" />
      <path
         d="M 1924.1,76.7188 V 204.398 h 20.44 V 76.7188 c 0,-35.2774 21,-56.2774 56.56,-56.2774 35.28,0 55.99,21 55.99,56.2774 V 204.398 h 20.45 V 76.7188 C 2077.54,28.5586 2049.26,0 2001.1,0 c -48.44,0 -77,28.5586 -77,76.7188"
         style="fill:#100f0d;fill-opacity:1;fill-rule:nonzero;stroke:none"
         id="path478" />
      <path
         d="m 2102.74,105.559 c 0,54.882 47.04,101.359 104.44,101.359 38.92,0 71.4,-21.559 89.32,-52.359 h -22.96 c -15.12,19.312 -39.48,31.921 -66.36,31.921 -46.2,0 -83.16,-36.96 -83.16,-80.921 0,-46.1996 36.96,-83.1606 83.16,-83.1606 29.4,0 55.16,15.1211 70,38.0821 v 45.0785 h 20.44 V 4.48047 h -20.44 V 28.8281 c -18.48,-16.789 -43.12,-26.86716 -70,-26.86716 -57.4,0 -104.44,46.46876 -104.44,103.59806"
         style="fill:#100f0d;fill-opacity:1;fill-rule:nonzero;stroke:none"
         id="path480" />
      <path
         d="m 2423.34,163.52 c -4.19,13.16 -17.64,23.519 -32.76,23.519 -21.84,0 -36.12,-15.687 -36.12,-33.039 0,-17.359 12.04,-25.199 36.12,-32.762 37.24,-11.758 64.96,-26.3161 64.96,-61.3161 0,-35 -28.84,-57.96096 -64.96,-57.96096 -33.32,0 -60.48,22.39846 -64.4,53.48046 h 21.29 c 3.91,-19.3203 21.55,-33.043 43.11,-33.043 24.36,0 43.68,14.2813 43.68,37.5235 0,18.4765 -12.04,28.5586 -43.68,38.3594 -37.24,11.4807 -57.4,25.4807 -57.4,55.7187 0,30.23 22.96,53.48 57.4,53.48 28,0 50.68,-18.21 55.16,-43.96 h -22.4"
         style="fill:#100f0d;fill-opacity:1;fill-rule:nonzero;stroke:none"
         id="path482" />
      <path
         d="m 2766.55,1230.85 c -5.12,0 -10.23,1.95 -14.14,5.86 -7.81,7.81 -7.81,20.47 0,28.28 l 43.96,33.95 c 63.32,63.32 108.19,117.51 108.19,207.06 v 84.71 c 0,11.05 8.95,20 20,20 11.04,0 20,-8.95 20,-20 V 1506 c 0,-100.23 -49.03,-174.46 -119.91,-245.34 l -43.96,-23.95 c -3.9,-3.91 -9.02,-5.86 -14.14,-5.86"
         style="fill:#a2c1c2;fill-opacity:1;fill-rule:nonzero;stroke:none"
         id="path484" />
      <path
         d="m 2965.48,1612.46 c 0,-22.2 -18.03,-40.22 -40.22,-40.22 -22.26,0 -40.29,18.02 -40.29,40.22 0,22.26 18.03,40.28 40.29,40.28 22.19,0 40.22,-18.02 40.22,-40.28"
         style="fill:#f5f5f5;fill-opacity:1;fill-rule:nonzero;stroke:none"
         id="path486" />
      <path
         d="m 3055.6,1612.46 h -261.95 c -21.41,0 -29.68,27.91 -11.66,39.51 52.09,33.5 94.22,73.72 126.66,120.37 4.03,5.86 10.25,8.9 16.61,9.11 6.93,0.36 13.92,-2.61 18.38,-8.9 34,-48.49 74.57,-89.2 123.19,-120.37 18.24,-11.66 10.39,-39.72 -11.23,-39.72"
         style="fill:#a2c1c2;fill-opacity:1;fill-rule:nonzero;stroke:none"
         id="path488" />
      <path
         d="m 2925.26,1572.24 v 40.22 h 40.22 c 0,-22.2 -18.03,-40.22 -40.22,-40.22"
         style="fill:#c2c0be;fill-opacity:1;fill-rule:nonzero;stroke:none"
         id="path490" />
      <path
         d="m 3055.6,1612.46 h -130.34 v 98.7 c 7.15,0 12.94,5.79 12.94,12.94 0,7.14 -5.79,12.94 -12.94,12.94 v 0 44.41 c 0.37,0.02 0.74,0.03 1.1,0.03 6.56,0 13.06,-2.98 17.28,-8.93 34,-48.49 74.57,-89.2 123.19,-120.37 7.02,-4.49 10.18,-11.4 10.17,-18.21 -0.01,-10.89 -8.1,-21.51 -21.4,-21.51 m -41.53,53.22 c -7.15,0 -12.94,-5.79 -12.94,-12.94 0,-7.14 5.79,-12.94 12.94,-12.94 7.15,0 12.94,5.8 12.94,12.94 0,7.15 -5.79,12.94 -12.94,12.94"
         style="fill:#7d989b;fill-opacity:1;fill-rule:nonzero;stroke:none"
         id="path492" />
      <path
         d="m 2872.03,1629.33 c -7.14,0 -12.94,5.79 -12.94,12.93 0,7.15 5.8,12.94 12.94,12.94 7.15,0 12.94,-5.79 12.94,-12.94 0,-7.14 -5.79,-12.93 -12.94,-12.93"
         style="fill:#7d989b;fill-opacity:1;fill-rule:nonzero;stroke:none"
         id="path494" />
      <path
         d="m 3014.07,1639.8 c -7.15,0 -12.94,5.8 -12.94,12.94 0,7.15 5.79,12.94 12.94,12.94 7.15,0 12.94,-5.79 12.94,-12.94 0,-7.14 -5.79,-12.94 -12.94,-12.94"
         style="fill:#61777c;fill-opacity:1;fill-rule:nonzero;stroke:none"
         id="path496" />
      <path
         d="m 2925.26,1711.16 c -7.15,0 -12.94,5.79 -12.94,12.94 0,7.14 5.79,12.94 12.94,12.94 v -25.88"
         style="fill:#7d989b;fill-opacity:1;fill-rule:nonzero;stroke:none"
         id="path498" />
      <path
         d="m 2925.26,1711.16 v 0 25.88 c 7.15,0 12.94,-5.8 12.94,-12.94 0,-7.15 -5.79,-12.94 -12.94,-12.94"
         style="fill:#61777c;fill-opacity:1;fill-rule:nonzero;stroke:none"
         id="path500" />
      <path
         d="m 667.383,1367.48 c -6.25,0 -12.5,2.39 -17.274,7.16 l -86.859,62.42 c -58.945,58.94 -91.574,137.31 -91.879,220.67 L 471,1760.07 c -0.047,13.49 10.848,24.47 24.34,24.52 h 0.09 c 13.453,0 24.379,-10.88 24.429,-24.34 l 0.371,-102.35 c 0.254,-70.37 27.801,-136.53 77.567,-186.3 l 86.859,-62.42 c 9.539,-9.53 9.539,-25 0,-34.54 -4.765,-4.77 -11.023,-7.16 -17.273,-7.16"
         style="fill:#a2c1c2;fill-opacity:1;fill-rule:nonzero;stroke:none"
         id="path502" />
      <path
         d="m 542.574,1791.51 c 0,-25.57 -20.765,-46.33 -46.336,-46.33 -25.648,0 -46.414,20.76 -46.414,46.33 0,25.65 20.766,46.42 46.414,46.42 25.571,0 46.336,-20.77 46.336,-46.42"
         style="fill:#f5f5f5;fill-opacity:1;fill-rule:nonzero;stroke:none"
         id="path504" />
      <path
         d="M 646.395,1791.51 H 344.621 c -24.676,0 -34.199,32.17 -13.437,45.52 60.011,38.6 108.543,84.93 145.921,138.67 4.641,6.76 11.805,10.26 19.133,10.51 7.981,0.4 16.043,-3.02 21.172,-10.26 39.168,-55.86 85.906,-102.77 141.93,-138.68 21.012,-13.43 11.973,-45.76 -12.945,-45.76"
         style="fill:#a2c1c2;fill-opacity:1;fill-rule:nonzero;stroke:none"
         id="path506" />
      <path
         d="m 496.238,1745.18 v 46.33 h 46.336 c 0,-25.57 -20.765,-46.33 -46.336,-46.33"
         style="fill:#c2c0be;fill-opacity:1;fill-rule:nonzero;stroke:none"
         id="path508" />
      <path
         d="M 646.395,1791.51 H 496.238 v 138.58 c 2.016,-5.85 7.567,-10.05 14.098,-10.05 8.234,0 14.906,6.67 14.906,14.91 0,8.23 -6.672,14.9 -14.906,14.9 -6.531,0 -12.082,-4.19 -14.098,-10.04 v 46.4 c 0.426,0.02 0.852,0.03 1.274,0.03 7.558,0 15.043,-3.43 19.898,-10.29 39.168,-55.86 85.906,-102.77 141.93,-138.68 8.086,-5.17 11.719,-13.13 11.715,-20.98 -0.012,-12.54 -9.332,-24.78 -24.66,-24.78 m -97.571,61.32 c -8.23,0 -14.906,-6.67 -14.906,-14.9 0,-8.24 6.676,-14.91 14.906,-14.91 8.235,0 14.906,6.67 14.906,14.91 0,8.23 -6.671,14.9 -14.906,14.9"
         style="fill:#7d989b;fill-opacity:1;fill-rule:nonzero;stroke:none"
         id="path510" />
      <path
         d="m 548.824,1823.02 c -8.23,0 -14.906,6.67 -14.906,14.91 0,8.23 6.676,14.9 14.906,14.9 8.235,0 14.906,-6.67 14.906,-14.9 0,-8.24 -6.671,-14.91 -14.906,-14.91"
         style="fill:#61777c;fill-opacity:1;fill-rule:nonzero;stroke:none"
         id="path512" />
      <path
         d="m 496.238,1930.09 c -0.523,1.52 -0.808,3.16 -0.808,4.86 0,1.7 0.285,3.34 0.808,4.86 v -9.72"
         style="fill:#7d989b;fill-opacity:1;fill-rule:nonzero;stroke:none"
         id="path514" />
      <path
         d="m 510.336,1920.04 c -6.531,0 -12.082,4.2 -14.098,10.05 v 9.72 c 2.016,5.85 7.567,10.04 14.098,10.04 8.234,0 14.906,-6.67 14.906,-14.9 0,-8.24 -6.672,-14.91 -14.906,-14.91"
         style="fill:#61777c;fill-opacity:1;fill-rule:nonzero;stroke:none"
         id="path516" />
      <path
         d="m 1769.58,3349.54 v -1.9 c 0,-50.3 -40.8,-91.1 -91.1,-91.1 h -318.3 c -50.4,0 -91.2,40.8 -91.2,91.1 v 1.9 c 0,50.3 40.8,91.1 91.2,91.1 h 318.3 c 50.3,0 91.1,-40.8 91.1,-91.1"
         style="fill:#f5f5f5;fill-opacity:1;fill-rule:nonzero;stroke:none"
         id="path518" />
      <path
         d="m 1781.18,3349.54 v -0.9 c -0.5,-58.1 -46.4,-103.6 -102.7,-103.6 h -154.7 v 207.2 h 154.7 c 56.6,0 102.7,-46.1 102.7,-102.7"
         style="fill:#da491f;fill-opacity:1;fill-rule:nonzero;stroke:none"
         id="path520" />
      <path
         d="m 1548.96,3414.67 c 0,7.98 6.46,14.44 14.44,14.44 h 107.09 c 47.16,0 85.52,-38.35 85.52,-85.51 0,-7.98 -6.46,-14.44 -14.44,-14.44 -7.99,0 -14.44,6.46 -14.44,14.44 0,31.22 -25.42,56.63 -56.64,56.63 H 1563.4 c -7.98,0 -14.44,6.46 -14.44,14.44"
         style="fill:#f5f5f5;fill-opacity:1;fill-rule:nonzero;stroke:none"
         id="path522" />
      <path
         d="m 1523.78,3256.54 h -163.6 c -50.4,0 -91.2,40.8 -91.2,91.1 v 1 h 254.8 v -92.1"
         style="fill:#dcdbd9;fill-opacity:1;fill-rule:nonzero;stroke:none"
         id="path524" />
      <path
         d="m 1678.48,3245.04 h -154.7 v 103.6 h 203.12 c 0.15,-1.66 0.23,-3.34 0.23,-5.04 0,-7.98 6.45,-14.44 14.44,-14.44 7.98,0 14.44,6.46 14.44,14.44 0,1.69 -0.05,3.37 -0.15,5.04 h 25.32 c -0.5,-58.1 -46.4,-103.6 -102.7,-103.6"
         style="fill:#c44221;fill-opacity:1;fill-rule:nonzero;stroke:none"
         id="path526" />
      <path
         d="m 1741.57,3329.16 c -7.99,0 -14.44,6.46 -14.44,14.44 0,1.7 -0.08,3.38 -0.23,5.04 h 28.96 c 0.1,-1.67 0.15,-3.35 0.15,-5.04 0,-7.98 -6.46,-14.44 -14.44,-14.44"
         style="fill:#dcdbd9;fill-opacity:1;fill-rule:nonzero;stroke:none"
         id="path528" />
    </g>
  </g>
</svg>
