<svg xmlns="http://www.w3.org/2000/svg" width="256" height="256"><path fill-opacity=".016" d="M0 128.004v128.004l128.25-.254 128.25-.254.254-127.75L257.008 0H0v128.004m.485.496c0 70.4.119 99.053.265 63.672.146-35.38.146-92.98 0-128C.604 29.153.485 58.1.485 128.5" fill="#1976D2" fill-rule="evenodd"/><path fill-opacity=".203" d="M105.231 2.089C61.554 11.261 27.562 43.662 16.328 86.83c-3.414 13.117-4.25 33.679-1.915 47.071 4.064 23.309 14.137 43.277 30.44 60.341 9.612 10.06 18.176 16.499 30.216 22.718 38.24 19.75 82.213 17.082 118.319-7.18 7.965-5.352 24.13-21.561 29.565-29.646 9.395-13.977 15.766-29.783 18.634-46.233 2.335-13.392 1.499-33.954-1.915-47.071-7.957-30.578-27.51-56.153-55.172-72.166C161.866 1.561 131.033-3.33 105.231 2.089m3.446 17.538C88.918 23.866 73.316 32.436 59 46.914 47.741 58.302 41.21 68.661 36.416 82.738c-4.116 12.085-5.402 19.899-5.395 32.762.011 20.779 7.33 42.766 19.252 57.839l3.037 3.84 31.323-31.312c20.412-20.404 30.982-31.652 30.345-32.289-.538-.538-.969-3.251-.959-6.028.02-5.012.072-5.094 7-10.964 3.84-3.252 6.981-6.514 6.981-7.25 0-.988-1.825-1.336-7-1.336-6.333 0-7-.19-7-2 0-1.864.732-2.013 10.75-2.196 8.32-.151 9.177-.276 3.792-.55-7.42-.378-9.542-1.357-9.542-4.401 0-1.109-1.043-2.299-2.5-2.853-1.906-.725-2.5-1.669-2.5-3.975 0-3.9 1.572-3.917 2.35-.025.571 2.856.842 3 5.625 3H127v-8h14.141l-.321 11.001c-.176 6.051-.08 11.001.214 11 .294 0 2.881-2.378 5.75-5.282 5.046-5.11 5.216-5.465 5.216-10.917 0-3.531-.467-5.853-1.25-6.219-1-.466-1-.7 0-1.166 1.722-.804 1.58-4.417-.173-4.417-.783 0-2.808-1.165-4.5-2.589-3.006-2.529-3.077-2.793-3.077-11.365 0-7.575.306-9.166 2.24-11.624 1.232-1.566 2.104-3.652 1.937-4.635-.301-1.777.718-2.009 8.823-2.009 5.365 0 5.82.196 5.277 2.27-.345 1.318.302 2.939 1.814 4.549 1.873 1.993 2.426 3.868 2.73 9.242.501 8.864-1.426 13.68-6.285 15.71-3.826 1.599-4.211 2.336-2.286 4.376 1 1.06 1 1.417 0 1.783-.688.252-1.25 2.099-1.25 4.104v3.646l9.055-8.979 9.055-8.979-.305-6.712-.305-6.711 5.296-.66c4.856-.604 8.415.246 5.454 1.303-.687.246-1.25 1.189-1.25 2.097 0 1.162 1.097.552 3.716-2.066 4.345-4.345 4.855-3.606-8.098-11.72-8.831-5.531-20.58-10.116-31.937-12.462-9.492-1.961-28.732-1.931-38.004.058M113 35v7h6.961c5.873 0 7.28-.342 9-2.189 2.726-2.925 2.573-6.368-.416-9.356-2.106-2.107-3.383-2.455-9-2.455H113v7m5.5-4.326c6.008.75 7.604 1.428 8.48 3.606.647 1.608.911 1.757.957.541.116-3.079-2.792-4.83-7.758-4.671-3.117.1-3.677.275-1.679.524M97 36.345c0 2.88 3.557 4.655 9.329 4.655 5.634 0 5.671-.019 5.671-3v-3h-7.5c-5.616 0-7.5.338-7.5 1.345m-24 7.906c0 .754 1.125 4.241 2.5 7.75 1.942 4.955 2.222 6.579 1.25 7.271-.775.552-.11.645 1.75.246 6.067-1.303 9.404-8.21 5.832-12.077-1.007-1.091-1.494-1.546-1.082-1.012C85.216 48.974 82.813 58 80.17 58c-.394 0-1.796-3.171-3.116-7.048C74.764 44.226 73 41.31 73 44.251m15.094 7.136c-.91 1.096-.507 1.929 1.923 3.974 6.157 5.18 13.327 5.378 20.102.554 2.625-1.869 4.274-2.192 10.254-2.011 3.92.119 8.075.446 9.233.728 2.266.552 5.804-2.16 4.844-3.713-.318-.514-10.391-.919-22.887-.919-17.81 0-22.551.28-23.469 1.387m109.387 6.632-4.944 5.02 2.732 2.347c3.009 2.585 3.412 3.614 1.418 3.614-.722 0-2.503 1.242-3.957 2.76-1.921 2.005-2.387 3.168-1.703 4.25 2.271 3.592.836 10.165-3.185 14.59-1.701 1.871-1.742 2.239-.375 3.372C190.466 96.461 188.87 97 178.5 97c-10.405 0-12.479-.747-8.671-3.125 1.754-1.096 1.744-1.233-.25-3.344L167.5 88.33l-12.133 11.953-12.133 11.954 3.133 2.8c2.72 2.431 3.12 3.427 3.033 7.551-.075 3.577-.631 5.181-2.25 6.492-1.182.957-2.15 2.176-2.15 2.708s-.636 1.495-1.414 2.14c-1.708 1.419-8.216-.036-7.846-1.754.132-.613-.681-1.607-1.806-2.21-1.126-.602-2.367-1.96-2.758-3.017-.595-1.609-6.003 3.37-33.086 30.463l-32.374 32.385 5.931 4.353c7.754 5.691 21.834 12.289 31.853 14.926 10.307 2.714 28.81 3.634 39.25 1.952 36.895-5.944 67.423-32.162 78.047-67.026 6.805-22.335 5.232-48.048-4.251-69.491C213.989 68.726 204.093 53 203.012 53c-.323 0-2.812 2.259-5.531 5.019M62.662 63.25c-2.884 6.095-5.076 16.869-4.076 20.023.592 1.863.138 1.692-3.132-1.179-3.552-3.119-11.471-7.41-12.246-6.636-.733.733 2.083 9.263 4.354 13.187 1.319 2.279 3.792 5.317 5.495 6.75L56.153 98h-4.556C47.077 98 39 100.537 39 101.957c0 1.712 8.548 4.471 13.626 4.397 5.137-.074 5.32.014 4.747 2.296-.5 1.993-.298 2.267 1.266 1.709 1.023-.365 2.62-1.314 3.549-2.11 1.541-1.321 1.714-1.077 2 2.825.449 6.139 2.812 6.437 2.812.354 0-4.431.113-4.638 1.75-3.201 1.936 1.7 6.25 3.27 6.25 2.275 0-.349-.414-1.407-.919-2.351-.82-1.531-.303-1.716 4.75-1.698 3.72.014 7.216-.705 10.169-2.092l4.5-2.113-4.5-2.102c-2.475-1.156-6.454-2.112-8.843-2.124L75.815 98l4.5-5.006C84.53 88.306 88 80.998 88 76.808c0-1.731-.213-1.746-3.75-.276-2.062.857-5.378 2.861-7.368 4.454l-3.618 2.896-.512-6.387C72.299 71.859 67.233 58 65.625 58c-.264 0-1.597 2.362-2.963 5.25m33.962 1.51c-1.84 3.558-2.103 6.826-.624 7.74.55.34 1.007-.196 1.015-1.191.009-.995.424-2.455.924-3.244.69-1.09 1.136-.609 1.857 2 .756 2.739 1.098 3.08 1.684 1.683.885-2.108.125-5.539-1.812-8.188-1.365-1.866-1.482-1.82-3.044 1.2m91.866 2.25c-1.575 1.645-2.408 2.99-1.851 2.99 1.286 0 5.869-4.826 5.209-5.486-.272-.271-1.783.852-3.358 2.496M205 69c0 1.1-.415 2-.923 2-.532 0-.683 3.165-.358 7.471l.565 7.472-3.642 4.031L197 94.006v18.94c0 22.159-.049 22.054 10.288 22.054 10.124 0 9.712.927 9.712-21.848V93.374l-3.083-2.937c-2.968-2.829-3.072-3.214-2.824-10.437.297-8.609-1.077-13-4.068-13-1.358 0-2.025.659-2.025 2m-101 8.193c0 2.154-.353 2.326-4.039 1.975l-4.039-.386.289 9.359.289 9.359h10l.289-8.75c.159-4.812.721-8.75 1.25-8.75s.961-.45.961-1-.675-1-1.5-1-1.388-.506-1.25-1.125c.138-.619-.312-1.331-1-1.583-.776-.285-1.25.436-1.25 1.901m32.813 6.49c.721.289 1.584.253 1.916-.079.332-.332-.258-.568-1.312-.525-1.165.048-1.402.285-.604.604m-5.563 5.033c1.512.229 3.988.229 5.5 0s.275-.416-2.75-.416-4.262.187-2.75.416M162 104.43V111h-8v9h4c3.333 0 4 .333 4 2s.667 2 4 2h4v-8.429c0-6.692-.361-8.79-1.75-10.183-.963-.965-1.75-2.91-1.75-4.321 0-1.901-.584-2.65-2.25-2.887-2.137-.303-2.25.01-2.25 6.25m-73.546 2.644c-.365.591.365 2.169 1.622 3.507l2.285 2.432-2.88 3.006-2.879 3.006-4.28-4.2c-5.509-5.406-6.734-4.254-1.834 1.725l3.77 4.601-3.828 3.921-3.828 3.92-2.594-2.484-2.593-2.485-5.904 5.966-5.903 5.965 2.271 2.417c1.478 1.573 1.89 2.654 1.18 3.093-.6.371-.879 1.019-.619 1.439.26.421-1.532 2.734-3.983 5.14-2.452 2.405-4.457 5.023-4.457 5.817 0 .795 2.667-1.099 5.926-4.208 3.259-3.109 6.267-5.652 6.685-5.652.418 0 1.71.893 2.872 1.984l2.112 1.984 5.898-5.961 5.899-5.961-2.188-2.328-2.187-2.329 3.916-3.823 3.916-3.824 4.575 3.749c5.507 4.513 6.111 2.666.881-2.691l-3.695-3.784 2.886-3.012 2.886-3.012 2.816 2.697c2.193 2.102 3.081 2.432 4.018 1.495.937-.937-.107-2.526-4.725-7.193-6.167-6.232-6.934-6.701-8.037-4.917M172 108.55c0 4.2 5.661 10.45 9.465 10.45 1.21 0 1.535 1.275 1.535 6.025 0 5.441-.233 6.113-2.403 6.938-5.073 1.929-3.831 3.037 3.403 3.037s8.476-1.108 3.403-3.037c-2.158-.82-2.403-1.508-2.403-6.737 0-5.756.041-5.839 3.525-7.099 3.765-1.361 5.925-3.94 7.016-8.377l.676-2.75h-12.109c-10.268 0-12.108.235-12.108 1.55m2 1.299c0 2.268 5.699 7.16 8.173 7.015 2.318-.136 2.318-.138.094-.567-1.228-.238-3.59-2.079-5.25-4.092-1.659-2.013-3.017-3.074-3.017-2.356m-40.334 14.578c-.725 1.891 1.522 3.693 3.263 2.617 1.656-1.024.692-4.044-1.291-4.044-.783 0-1.67.642-1.972 1.427m9.408-.473c-1.578.976-.569 3.046 1.485 3.046 1.52 0 2.003-2.535.643-3.375-.439-.271-1.396-.123-2.128.329m-103.378 6.59c-3.193 3.009-5.529 5.917-5.191 6.463.337.546 3.061.993 6.054.993 5.039 0 6.843 1.015 4.441 2.5-1.954 1.207-1.083 9.943 1.5 15.054 2.955 5.845 9.937 11.437 11.829 9.472.903-.938.599-1.593-1.329-2.859-5.234-3.437-7.863-7.19-9.053-12.924-1.605-7.73-.527-10.65 4.071-11.032 6.649-.551 6.674-.954.444-7.249-3.245-3.279-6.138-5.946-6.431-5.926-.292.021-3.143 2.499-6.335 5.508M139 130c0 .55.45 1 1 1s1-.45 1-1-.45-1-1-1-1 .45-1 1m27.5 4c.607 2.765.437 3.009-2.171 3.118-1.556.066-3.15.071-3.543.012-.393-.058-.457.564-.143 1.382.314.818.999 1.488 1.523 1.488.524 0 .653-.483.288-1.074-.463-.75-.104-.772 1.191-.073 1.02.551 2.571 1.217 3.445 1.481 1.149.347 1.465 1.34 1.137 3.573-.268 1.825-.012 3.093.624 3.093.593 0 .081 1.035-1.137 2.301-2.573 2.673-3.302 2.666-1.865-.019 1.209-2.26-.104-5.296-1.391-3.215-.984 1.592-1.009 6.234-.062 11.254.614 3.255.268 4.528-2.337 8.588-3.699 5.763-4.088 11.513-1.041 15.386 1.555 1.978 1.727 2.752.75 3.381-1.418.911 5.747 2.094 13.545 2.236 4.056.074 4.766-.187 4.517-1.662-.163-.963.526-3.481 1.53-5.597 2.245-4.729 1.581-9.382-1.936-13.56-2.251-2.676-2.459-3.666-2.127-10.105.364-7.068.414-7.181 5.163-11.603 2.638-2.457 5.301-4.298 5.918-4.093.764.254 1.204 6.404 1.38 19.291.236 17.301.091 19.19-1.702 22.113-1.078 1.757-3.137 3.966-4.576 4.909-2.468 1.617-4.095 1.8-20.23 2.271-2.338.068-4.25.574-4.25 1.124 0 .602 4.114 1 10.343 1 12.79 0 17.707-2.063 21.354-8.96 2.161-4.086 2.303-5.481 2.303-22.626 0-15.277-.258-18.529-1.571-19.843-2.758-2.757-5.756-1.823-10.9 3.399-3.759 3.817-5.201 4.717-6.212 3.878-2.178-1.807-1.66-5.848.749-5.848 2.976 0 5.934-1.816 5.934-3.645 0-1.21-.809-1.479-3.5-1.165-1.925.225-3.5.303-3.5.174 0-.128.439-1.388.975-2.799.967-2.544.933-2.565-4.079-2.565h-5.055l.659 3m-38.5-.082c0 .505-.303 1.708-.674 2.674-.519 1.353-.29 1.608.999 1.113.92-.353 2.686-.254 3.924.219l2.251.861-2.564.669c-1.411.368-3.053.529-3.65.358-.598-.172-1.131.026-1.186.438-.346 2.594.086 3.75 1.4 3.75.825 0 1.5-.373 1.5-.828 0-.456 2.168-1.329 4.817-1.94 5.363-1.238 12.37-.079 15.414 2.549 1.566 1.352 1.817 1.267 2.633-.893 1.067-2.828.477-4.233-1.464-3.488-.769.295-2.411.129-3.649-.368-1.954-.786-1.757-.914 1.499-.969 3.024-.051 3.75-.439 3.75-2.004 0-2.409-1.688-3.558-3.294-2.243-2.847 2.333-9.845 3.35-14.826 2.155-2.684-.644-4.88-1.576-4.88-2.071 0-.495-.45-.9-1-.9s-1 .413-1 .918m73.085 9.187c-2.847 2.716-4.905 5.378-4.572 5.916.333.539 2.603.979 5.046.979 4.175 0 5.697 1.106 3.441 2.5-.55.34-1 2.414-1 4.609 0 4.872-1.72 8.324-6.376 12.799-4.019 3.863-3.883 5.794.257 3.654 4.049-2.094 8.335-9.143 8.823-14.51.803-8.835.93-9.052 5.315-9.052 2.19 0 3.981-.471 3.981-1.048 0-.576-2.191-3.238-4.869-5.916l-4.869-4.869-5.177 4.938m-81.863 6.18-2.062 2.215 7.664 8.71 7.664 8.709 3.256-3.155c1.791-1.736 3.256-2.645 3.256-2.019 0 .625-.45 1.415-1 1.755-.55.34-1 1.111-1 1.714s.947.239 2.105-.809 2.395-1.68 2.75-1.405c1.132.877 1.346-5.199.223-6.322-.771-.771-1.083-.665-1.095.372-.009.798-.972-.042-2.14-1.865l-2.122-3.316 2.139-2.894c2.88-3.894 2.704-4.854-.36-1.975-2.892 2.716-3.19 6.018-.865 9.566 3.305 5.044.199 3.529-7.97-3.888l-8.382-7.609-2.061 2.216m21.655 22.968c-17.597 17.606-16.403 15.868-13.086 19.047l2.776 2.659 14.242-14.268 14.242-14.268-2.898-2.777-2.899-2.777-12.377 12.384m-43.643.013C91.055 178.462 86 183.986 86 184.542c0 .557 3.155 4.142 7.011 7.969l7.011 6.957 12.223-12.223 12.223-12.223-6.957-7.011c-3.827-3.856-7.427-7.011-8-7.011-.574 0-6.099 5.07-12.277 11.266M120 198c0 .55.45 1 1 1s1-.45 1-1-.45-1-1-1-1 .45-1 1m-12 3.893c0 .491.739 1.176 1.641 1.523 1.373.527 1.435.38.378-.893-1.44-1.735-2.019-1.916-2.019-.63m-26.083 40.52c-.824.816.274 13.587 1.168 13.587.503 0 .915-2.329.915-5.176v-5.176l3.502 4.926c4.761 6.696 5.998 6.422 5.998-1.324 0-7.263-1.766-8.853-2.5-2.25l-.5 4.5-3.298-4.75c-3.066-4.415-4.237-5.376-5.285-4.337m15.257 1.901c-2.82 3.003-2.765 6.782.14 9.512 4.61 4.33 11.686 1.407 11.686-4.826 0-6.323-7.497-9.294-11.826-4.686M116 249v7h3.845c4.797 0 7.155-2.397 7.155-7.272 0-4.315-2.77-6.728-7.723-6.728H116v7m13 0c0 4 .429 7 1 7 .55 0 1-1.125 1-2.5s.417-2.5.927-2.5c.511 0 1.813 1.125 2.894 2.5 2.627 3.34 4.747 3.297 2.553-.051-1.258-1.921-1.388-2.835-.523-3.7 3.232-3.232.151-7.749-5.285-7.749-2.51 0-2.566.152-2.566 7m10.343-5.452c-.84 2.189.246 9.252 1.69 10.991 1.465 1.766 6.107 1.921 7.767.261 1.414-1.414 1.636-12.8.25-12.8-.523 0-1.085 2.588-1.25 5.75-.281 5.387-.458 5.75-2.8 5.75-2.342 0-2.519-.363-2.8-5.75-.288-5.52-1.607-7.46-2.857-4.202m14.601.296c-1.54 1.247-2.277 2.916-2.277 5.156 0 4.586 3.233 7.058 8.948 6.842 4.271-.162 4.385-.253 4.385-3.504 0-3.857-1.091-4.329-2.513-1.088-1.126 2.568-4.901 3.481-7.042 1.704-.795-.659-1.445-2.503-1.445-4.098 0-3.664 4.003-5.96 7.061-4.05 3.092 1.931 4.649 1.302 2.078-.839-2.957-2.464-6.249-2.508-9.195-.123m13.226-.094c-1.261 2.452-.455 4.051 2.92 5.797 1.601.827 2.91 2.168 2.91 2.979 0 1.765-3.119 1.955-4.783.291-1.669-1.669-2.771-.189-1.237 1.659 1.513 1.822 5.149 1.995 6.82.324 2.067-2.067 1.317-4.826-1.794-6.597-1.646-.936-2.996-2.265-3-2.953-.007-1.498 2.615-1.673 3.504-.234.346.559 1.069.744 1.608.411 1.573-.972-1.081-3.427-3.705-3.427-1.289 0-2.748.787-3.243 1.75m-68.634 2.21c-2.468 2.727-1.335 6.801 2.134 7.672 3.478.873 5.752-.67 6.166-4.184.582-4.942-4.899-7.246-8.3-3.488M118 249c0 4.551.207 5 2.3 5 3.019 0 4.7-1.788 4.7-5 0-3.212-1.681-5-4.7-5-2.093 0-2.3.449-2.3 5m13-2.5c0 2.165.404 2.582 2.25 2.32 1.477-.21 2.25-1.007 2.25-2.32s-.773-2.11-2.25-2.32c-1.846-.262-2.25.155-2.25 2.32" fill="#1976D2" fill-rule="evenodd"/><path fill-opacity=".285" d="M109.785 1.551C85.638 5.311 64.004 16.662 46 35.019c-61.676 62.886-32.08 168.606 53.5 191.103 38.71 10.177 80.82-1.396 109.523-30.099 15.22-15.22 25.37-33.366 30.715-54.911 2.243-9.043 2.636-12.83 2.662-25.612.049-25.173-5.485-43.829-19.101-64.383-24.484-36.962-69.165-56.472-113.514-49.566m5.687 16.423c-42.25 5.999-75.51 37.564-83.607 79.346-1.569 8.098-1.56 27.595.016 35.18 1.886 9.071 5.013 18.223 8.886 26 3.531 7.091 11.014 18.5 12.134 18.5.336 0 15.005-14.4 32.599-32 17.594-17.6 31.428-32 30.744-32-.837 0-1.244-1.75-1.244-5.35 0-5.285.073-5.413 5.921-10.5 3.257-2.833 6.2-5.15 6.541-5.15.34 0 1.962.993 3.603 2.206l2.984 2.206 9.394-9.355 9.394-9.356.378-6.1c.208-3.356.024-6.592-.41-7.193-.433-.601-.523-1.357-.199-1.68.323-.324-1.167-1.484-3.312-2.578-4.952-2.526-6.294-5.537-6.294-14.12 0-5.928.355-7.298 2.573-9.935 1.597-1.897 2.355-3.746 1.998-4.871-.517-1.629.143-1.821 6.511-1.894 6.507-.074 7.045.075 6.586 1.833-.31 1.185.419 2.833 1.916 4.33 2.181 2.181 2.416 3.254 2.416 11.038 0 8.197-.144 8.767-2.923 11.546-1.608 1.608-3.633 2.923-4.5 2.923-.91 0-1.577.846-1.577 2 0 1.1.54 2 1.2 2 .933 0 .933.267 0 1.2-.66.66-1.2 2.79-1.2 4.734v3.533L167.5 63c9.195-9.169 11.5-12.028 11.5-14.266 0-1.967-.668-3.067-2.25-3.703l-2.25-.904 2.25-.064c1.238-.034 2.25-.513 2.25-1.063 0-.55 1.173-1 2.607-1 2.084 0 2.466.351 1.904 1.75a139.08 139.08 0 0 0-1.254 3.25c-.304.825 1.315-.279 3.596-2.453S190 40.225 190 39.775c0-1.484-16.802-11.806-24.224-14.882-14.858-6.158-35.586-9.009-50.304-6.919m-1.481 11.776c-.004.962-.292 4.112-.639 7l-.631 5.25h6.985c8.972 0 11.762-2.526 10.025-9.079-.867-3.273-4.477-4.921-10.778-4.921-4.047 0-4.955.32-4.962 1.75M115.5 31c.34.55 2.591 1 5.002 1 3.378 0 4.737.503 5.918 2.19 2.122 3.029 3.242 1.47 1.192-1.659-1.444-2.204-2.374-2.531-7.194-2.531-3.436 0-5.302.379-4.918 1M88 52.432c0 2.172 5.607 5.706 9.986 6.293 4.948.664 7.945-.1 11.595-2.953 2.597-2.031 4.01-2.272 13.316-2.272 7.432 0 10.533-.358 10.84-1.25.336-.976-4.624-1.25-22.654-1.25C91.719 51 88 51.231 88 52.432m2.25.257c.963.252 2.537.252 3.5 0 .963-.251.175-.457-1.75-.457s-2.713.206-1.75.457m103.728 8.842c-6.643 6.684-8.165 8.725-7.032 9.43 2.943 1.83 8.194-3.421 5.807-5.808-1.754-1.754.342-1.377 2.326.418 1.631 1.476 1.523 1.767-1.776 4.791-3.338 3.058-3.462 3.404-2.483 6.947 1.286 4.657.11 9.111-3.362 12.735-2.152 2.246-2.322 2.794-1.02 3.294.859.33 1.562 1.063 1.562 1.631 0 .636-3.659 1.031-9.559 1.031-6.53 0-9.35-.339-8.898-1.069.363-.588 2.527-.933 4.809-.767l4.148.302.279-8.983.28-8.983-56.53 56.497C91.438 164.07 66 189.767 66 190.102c0 1.118 11.416 8.604 18.5 12.131 7.817 3.893 17.002 7.025 26 8.867 7.722 1.581 27.278 1.581 35 0 43.457-8.896 74.467-42.39 79.525-85.896 2.069-17.797-1.452-37.133-9.779-53.704-3.879-7.719-10.904-18.5-12.055-18.5-.404 0-4.55 3.839-9.213 8.531m-130.72 1.648c-2.901 6.178-4.246 11.603-4.252 17.155L59 85.168l-3.912-3.098c-2.151-1.704-5.526-3.773-7.5-4.598-4.392-1.835-4.552-1.124-1.551 6.897 1.346 3.598 3.551 6.84 6.5 9.558C54.992 96.19 57 98.246 57 98.496s-1.3.194-2.89-.124C50.951 97.74 40 100.514 40 101.945c0 2.004 8.969 4.338 14.482 3.769l5.466-.564-1.589 2.425c-2.233 3.408.177 3.244 3.836-.262L65 104.626v5.187c0 2.853.45 5.187 1 5.187s1-2.103 1-4.674v-4.675l2.314 2.175c3.506 3.293 5.694 2.922 3.782-.642-.805-1.501-.306-1.646 4.599-1.336 5.424.344 14.305-2.039 14.305-3.837C92 100.717 83.05 98 78.787 98H74.93l3.495-3.068C83.364 90.595 89.951 76 86.969 76 85.31 76 79.864 78.989 76 82.019l-3.5 2.745-.165-5.666c-.174-5.943-3.375-16.567-5.691-18.883-1.143-1.142-1.678-.674-3.386 2.964m69.463 5.433c-.307.307-.39 1.757-.186 3.223.204 1.466.13 2.103-.165 1.415-1.012-2.358-2.37-1.249-2.449 2-.043 1.787-.306 2.688-.583 2C128.401 74.93 127 75.979 127 79c0 2.533.389 3 2.5 3 1.876 0 2.5-.526 2.5-2.107 0-1.28.493-1.918 1.255-1.625.691.265 2.122-.666 3.18-2.069 1.658-2.199 1.692-2.462.244-1.906-1.335.512-1.679.048-1.679-2.265 0-2.827-1.148-4.547-2.279-3.416m71.766 1.638c-.41 1.237-.639 5.553-.508 9.591.226 7.013.097 7.485-2.893 10.57l-3.129 3.229.271 19.93.272 19.93 7.845.294c4.923.184 8.368-.141 9.25-.873 1.117-.926 1.405-5.068 1.405-20.172V93.742l-3.634-4.022-3.634-4.022.621-7.349c.388-4.589.251-7.349-.366-7.349-.543 0-.987-.675-.987-1.5 0-2.373-3.68-1.762-4.513.75M104 77.031c0 2.117 2.565 3.777 3.793 2.456.389-.419.145-.962-.543-1.207-.687-.246-1.25-1.084-1.25-1.863 0-.779-.45-1.417-1-1.417s-1 .914-1 2.031M122.232 79c0 1.925.206 2.713.457 1.75.252-.963.252-2.537 0-3.5-.251-.963-.457-.175-.457 1.75m3 0c0 1.925.206 2.713.457 1.75.252-.963.252-2.537 0-3.5-.251-.963-.457-.175-.457 1.75M96 88.899v7.9l4.483.356c2.465.196 4.94.204 5.5.017.575-.191 1.017-3.776 1.017-8.255V81H96v7.899m25.75-4.157c-3.713.192-6.75.721-6.75 1.175 0 .454 5.448 1.151 12.106 1.549 11.91.71 15.018.161 13.448-2.379-.65-1.051-3.997-1.113-18.804-.345m-33.097 21.939c-.375.374.537 1.951 2.025 3.504l2.705 2.824-3.373 3.481c-4.395 4.535-3.041 5.901 1.494 1.507l3.473-3.367 2.438 2.29c1.362 1.279 2.955 1.97 3.61 1.564.774-.478-.811-2.731-4.644-6.604-5.927-5.99-6.531-6.396-7.728-5.199m100.597 1.121c-4.821.278-5.25.502-5.25 2.75 0 2.064-.48 2.448-3.059 2.448-3.73 0-3.041 1.6 1.079 2.504 1.649.363 2.759 1.045 2.467 1.518-.679 1.098-6.003-.734-7.551-2.6-.65-.782-1.654-1.422-2.233-1.422-2.089 0 3.618 4.912 6.423 5.528 2.851.626 2.874.692 2.874 8.051 0 7.295.044 7.421 2.559 7.421 1.451 0 2.292-.433 1.941-1-.34-.55-1.266-1-2.059-1-1.103 0-1.441-1.484-1.441-6.32 0-6.133.093-6.361 3.179-7.75 3.836-1.726 7.123-5.94 6.659-8.537-.29-1.622-1.09-1.85-5.588-1.591m-108.732 18.18c-2.138 2.19-3.572 4.298-3.185 4.685.733.732 8.667-6.472 8.667-7.87 0-1.665-1.725-.662-5.482 3.185M46 131.565V138h4.941c2.718 0 5.198-.415 5.512-.923.313-.508-1.91-3.404-4.941-6.435L46 125.13v6.435m24-4.926c0 1.286 4.826 5.869 5.486 5.209.271-.272-.852-1.783-2.496-3.358-1.645-1.575-2.99-2.408-2.99-1.851m-2 2.116c0 .55.675 1.56 1.5 2.245.837.694 1.5.803 1.5.245 0-.55-.675-1.56-1.5-2.245-.837-.694-1.5-.803-1.5-.245m.49 5.235c1.575 1.644 3.086 2.767 3.358 2.496.66-.66-3.923-5.486-5.209-5.486-.557 0 .276 1.345 1.851 2.99m97.51-2.555c0 1.963 2.249 5.565 3.475 5.565 1.24 0 1.525 1.498 1.525 8v8h-6.962l.61 4.448c.53 3.866.201 5.065-2.519 9.171-3.528 5.326-3.911 9.01-1.426 13.681.937 1.76 1.592 3.763 1.456 4.45-.183.926 2.091 1.25 8.766 1.25 7.372 0 8.913-.258 8.468-1.419-.3-.781.209-2.57 1.131-3.977 2.624-4.004 2.102-8.953-1.541-14.63-2.894-4.51-3.12-5.393-2.256-8.798 1.108-4.365.126-7.89-2.761-9.913-1.197-.838-1.966-2.527-1.966-4.32 0-2.676.306-2.943 3.378-2.943 1.857 0 3.937-.675 4.622-1.5 1.068-1.287.72-1.5-2.457-1.5-3.593 0-3.683-.088-3.043-3 .657-2.993.647-3-3.921-3-2.518 0-4.579.196-4.579.435m-100.98 3.089c.696.838 1.471 1.318 1.723 1.067.693-.694-.716-2.591-1.924-2.591-.664 0-.588.574.201 1.524m-.53 3.466c1.575 1.644 3.086 2.767 3.358 2.496.66-.66-3.923-5.486-5.209-5.486-.557 0 .276 1.345 1.851 2.99M183.5 141c-1.581 1.65-2.41 3-1.842 3 .568 0 1.847-.9 2.842-2 2.171-2.399 5.055-2.603 5.893-.418.334.87.607 9.099.607 18.288 0 15.358-.182 17.06-2.25 21.094-2.607 5.085-7.376 8.036-12.984 8.036-2.145 0-3.766.489-3.766 1.136 0 1.636 8.582.293 12.41-1.943 1.696-.991 4.097-3.306 5.337-5.145 2.148-3.187 2.253-4.263 2.253-22.996 0-20.14-.348-22.052-4.013-22.052-.887 0-2.906 1.35-4.487 3m22.303-.828c-.259.731-.275 3.226-.035 5.545l.436 4.217 4.648-.608c2.556-.334 4.75-.684 4.875-.777.125-.093-1.951-2.315-4.613-4.937-3.197-3.149-5-4.317-5.311-3.44m-147.676 8.306c-5.768 6.257-5.162 6.967.873 1.022 2.75-2.709 5-5.054 5-5.212 0-1.284-2.418.441-5.873 4.19m38.991 23.904c-8.486 8.51-11.131 11.753-10.484 12.854C87.86 187.322 99.587 198 100.651 198c1.23 0 22.355-21.308 22.323-22.516-.033-1.23-12.552-14.484-13.68-14.484-.455 0-5.934 5.122-12.176 11.382M152 161.8c0 .44.461 1.261 1.024 1.824.698.698.38 1.606-1 2.855-1.978 1.79-2.024 1.777-2.024-.556 0-2.003-1.692-.702-10.522 8.095-9.09 9.056-10.234 10.551-8.404 10.991l2.117.508-2.077 1.88c-1.702 1.541-2.35 1.652-3.595.619-.836-.694-1.519-.965-1.519-.603 0 1.393 3.287 5.587 4.379 5.587.632 0 7.197-6.061 14.589-13.468l13.441-13.468-2.379-2.532c-2.377-2.53-4.03-3.241-4.03-1.732m-17 2.2c-.589 1.1-.713 2-.276 2 .437 0 1.357-.9 2.044-2 .692-1.108.815-2 .276-2-.536 0-1.455.9-2.044 2m-23 5c-.825.533-1.116.976-.647.985.469.008-.544 1.24-2.25 2.738-3.172 2.783-3.899 4.277-2.082 4.277.562 0 1.528-1.111 2.147-2.469.618-1.357 1.476-2.251 1.906-1.985.43.266 1.072-.43 1.426-1.546.354-1.116 1.062-1.771 1.572-1.456.51.316.928.097.928-.485 0-1.309-1.035-1.329-3-.059m3.534 4.945c-.965 1.561.305 3.055 2.598 3.055 1.375 0 1.908-.552 1.68-1.739-.384-1.992-3.305-2.891-4.278-1.316m-12.078 3.983c.315.51-.34 1.218-1.456 1.572-1.116.354-1.771 1.062-1.456 1.572.316.51.071.928-.544.928s-.802.511-.417 1.135c.453.733 1.17.29 2.024-1.25.727-1.312 1.345-1.935 1.373-1.385.028.55.487.325 1.02-.5 1.27-1.965 1.25-3-.059-3-.582 0-.801.418-.485.928M100 187.5c-2.429 2.475-4.191 4.5-3.916 4.5.275 0 2.487-2.025 4.916-4.5 2.429-2.475 4.191-4.5 3.916-4.5-.275 0-2.487 2.025-4.916 4.5m-5.347-1.055c-1.451 1.346-2.248 2.687-1.772 2.982.822.507 6.119-3.717 6.119-4.879 0-1.221-1.856-.411-4.347 1.897m8.752.805-1.905 2.25 2.25-1.905c2.114-1.79 2.705-2.595 1.905-2.595-.19 0-1.202 1.012-2.25 2.25m2.467 1.5c-1.243 1.586-1.208 1.621.378.378.963-.755 1.75-1.543 1.75-1.75 0-.823-.821-.294-2.128 1.372m-23.704 60.5.168 7.25.582-5.868.582-5.869 4 5.597c2.2 3.078 4.338 5.607 4.75 5.618.412.012.674-3.24.582-7.228l-.168-7.25-.582 5.868-.582 5.869-4-5.597c-2.2-3.078-4.338-5.607-4.75-5.618-.412-.012-.674 3.24-.582 7.228m15.287-4.795C96.105 245.805 95 247.85 95 249c0 2.819 4.349 7 7.28 7 3.084 0 6.72-3.919 6.72-7.242 0-2.92-4.077-6.758-7.18-6.758-1.051 0-3.015 1.105-4.365 2.455M117 248.869c0 7.13.001 7.131 2.777 7.131 4.303 0 7.223-2.574 7.223-6.366 0-4.448-1.819-6.568-6.253-7.288l-3.747-.608v7.131m12 .19c0 4.451.369 6.831 1 6.441.55-.34 1-1.491 1-2.559 0-2.607 1.179-2.444 3.996.555 2.726 2.902 4.196 2.478 1.549-.446-1.635-1.806-1.647-2.091-.16-3.578.888-.888 1.615-2.188 1.615-2.888 0-2.079-3.459-4.584-6.329-4.584-2.642 0-2.671.075-2.671 7.059m11.15-1.509c-.166 6.683.848 8.45 4.85 8.45 1.43 0 3.14-.54 3.8-1.2 1.383-1.383 1.664-13.205.294-12.358-.498.308-.672 1.454-.387 2.547.286 1.093.224 3.568-.139 5.499-.574 3.06-1.033 3.512-3.568 3.512-3.06 0-3.227-.367-4.336-9.5-.2-1.65-.432-.278-.514 3.05m14.039-3.511c-2.753 2.565-2.853 7.297-.21 9.94 1.469 1.469 3.146 1.929 6.5 1.783 4.403-.192 4.521-.283 4.521-3.479 0-1.806-.45-3.283-1-3.283s-1 .852-1 1.893c0 3.794-6.216 4.233-8.592.607-1.517-2.316-1.517-2.684 0-5 1.735-2.648 4.469-3.171 7.658-1.465 1.266.678 1.934.69 1.934.035 0-1.29-3.331-3.07-5.746-3.07-1.032 0-2.862.918-4.065 2.039m14.011-.839c-2.17 2.17-1.361 4.913 1.8 6.106 3.419 1.291 4.187 4.694 1.059 4.694-1.068 0-2.219-.45-2.559-1-.977-1.58-2.5-1.163-1.858.509.794 2.069 5.055 2.987 6.871 1.48 2.473-2.052 1.685-4.675-2.072-6.891-3.854-2.274-3.746-4.642.168-3.66 2.643.663 3.32-.868.809-1.831-2.232-.857-2.856-.769-4.218.593m-69.629 2.371c-1.865 1.865-2.054 5.546-.371 7.229.66.66 2.37 1.2 3.8 1.2 1.43 0 3.14-.54 3.8-1.2 1.547-1.547 1.547-6.053 0-7.6-1.683-1.683-5.364-1.494-7.229.371M118 249.063v5.064l3.25-.314c2.873-.277 3.287-.698 3.568-3.628.382-3.973-1.207-6.185-4.44-6.185-2.191 0-2.378.399-2.378 5.063m13-2.563c0 2.165.404 2.582 2.25 2.32 1.477-.21 2.25-1.007 2.25-2.32s-.773-2.11-2.25-2.32c-1.846-.262-2.25.155-2.25 2.32" fill="#1976D2" fill-rule="evenodd"/><path fill-opacity=".287" d="M115.722 1.088C76.597 5.224 41.524 30.293 24.456 66.324c-8.52 17.988-12.48 40.282-10.442 58.799 3.035 27.587 13.034 49.558 31.134 68.411C67.887 217.22 95.406 229 128 229c32.466 0 60.172-11.814 82.605-35.224 18.702-19.516 28.234-40.479 31.427-69.114 2.003-17.956-2.058-40.541-10.488-58.338C214.191 29.692 179.623 5.304 139 1.033c-10.618-1.116-12.235-1.112-23.278.055M110.5 18.411c-58.17 11.256-93.477 69.98-75.795 126.065 3.734 11.843 12.64 28.245 17.547 32.318 1.219 1.012 7.56-4.943 38.105-35.786L127 104.009v-5.127c0-4.732-.135-5.023-1.75-3.772-1.456 1.128-1.434.984.134-.854 1.992-2.336 2.73-2.207 6.424 1.122l2.308 2.08 9.942-10.075c9.723-9.852 9.946-10.183 10.11-14.979.149-4.344.213-4.476.56-1.154.216 2.063.714 3.75 1.107 3.75 1.53 0 35.481-35.191 34.563-35.826l-7.318-5.05c-8.599-5.933-20.826-11.512-31.08-14.181-10.691-2.782-31.136-3.537-41.5-1.532M114 35.5V42h6c6.923 0 10-2.106 10-6.845C130 30.7 127.286 29 120.171 29H114v6.5m40 11.426c0 15.735.15 17.304 1.477 15.411.812-1.16 2.604-2.391 3.981-2.737 3.701-.929 5.542-5.405 5.542-13.474 0-6.051-.344-7.381-2.601-10.064-1.432-1.701-2.345-3.76-2.032-4.577.615-1.603.508-1.659-3.617-1.91l-2.75-.168v17.519M115 31c0 .55 2.26 1 5.021 1 4.386 0 5.166.316 6.161 2.5 1.355 2.974 2.818 3.271 2.818.571 0-3.445-2.748-5.071-8.571-5.071-2.986 0-5.429.45-5.429 1m32.349 16c0 4.675.173 6.587.383 4.25.211-2.338.211-6.163 0-8.5-.21-2.338-.383-.425-.383 4.25m4 0c0 4.675.173 6.587.383 4.25.211-2.338.211-6.163 0-8.5-.21-2.338-.383-.425-.383 4.25M88 51.911c0 1.756 6.092 6.016 9.523 6.659 4.499.844 8.192-.128 12.272-3.233 3.099-2.358 3.894-2.487 13.4-2.172 7.435.246 10.22.005 10.539-.915.338-.976-4.62-1.25-22.651-1.25-13.22 0-23.083.389-23.083.911m2.762.796c1.244.239 3.044.23 4-.02s-.062-.446-2.262-.435c-2.2.011-2.982.216-1.738.455m42.936 68.095-68.801 68.753 2.301 2.072c6.941 6.25 19.574 12.963 31.437 16.703 45.68 14.402 95.442-6.771 117.111-49.83 12.706-25.249 13.383-57.922 1.726-83.318-3.299-7.186-13.302-23.213-14.454-23.157-.285.014-31.479 30.964-69.32 68.777m-67.683-38.91L66 104.283l2.991 2.859c3.67 3.507 5.872 3.824 3.716.534l-1.523-2.324 6.658.074c6.394.071 13.158-1.738 13.158-3.519 0-1.619-10.728-4.048-14.696-3.327l-3.804.691 4.894-4.348c4.95-4.396 9.578-12.447 9.596-16.693l.01-2.271-4.25 2.128c-2.338 1.171-5.713 3.518-7.5 5.217L72 86.392v-5.59c0-5.292-2.829-16.54-4.98-19.802-.668-1.012-.994 5.777-1.005 20.892m138.101-8.111c-.064 1.255.559 2.541 1.384 2.857 2.547.978 1.957 10.397-1 15.958-2.376 4.469-2.5 5.521-2.5 21.22 0 9.084-.209 16.308-.465 16.052-.256-.256-.517-8.648-.58-18.65-.109-17.309-.006-18.343 2.131-21.452l2.245-3.266-3.665 3.446L198 93.392v19.104c0 13.525.35 19.454 1.2 20.304 1.429 1.429 13.619 1.6 15.8.221 1.247-.788 1.5-4.133 1.5-19.818v-18.87l-3.37-3.838c-3.302-3.76-3.361-3.989-2.901-11.167.426-6.633.295-7.328-1.379-7.328-1.018 0-1.85.675-1.85 1.5 0 2.077-1.752 1.888-2.311-.25-.339-1.299-.487-1.162-.573.531m-99.037 3.802c.048 1.165.285 1.402.604.605.289-.722.253-1.585-.079-1.917-.332-.332-.568.258-.525 1.312M96 89.552v7.553l5.25-.303 5.25-.302.294-7.25.294-7.25H96v7.552M115 86c0 .613 4.833 1 12.5 1s12.5-.387 12.5-1-4.833-1-12.5-1-12.5.387-12.5 1m3.924 13.75-2.424 2.75 2.75-2.424c2.57-2.266 3.209-3.076 2.424-3.076-.179 0-1.416 1.237-2.75 2.75M89 107.186c0 .652.983 2.232 2.185 3.511l2.185 2.326-3.381 3.488c-1.86 1.919-2.927 3.489-2.372 3.489.555 0 2.304-1.352 3.887-3.004l2.878-3.004 2.728 2.613c1.562 1.497 3.232 2.302 3.908 1.884.783-.484-.779-2.71-4.637-6.609-5.849-5.911-7.381-6.885-7.381-4.694m87.757 8.564c1.295 1.237 2.892 2.236 3.549 2.22.657-.017.294-.53-.806-1.14-1.1-.611-2.697-1.609-3.549-2.22-.852-.61-.489-.097.806 1.14m2.793-1.847c.522.497 1.813 1.059 2.867 1.25 2.3.416 3.221 2.495 1.388 3.134-.718.25.021.281 1.643.069 3.309-.432 7.552-2.893 7.552-4.379 0-.546-3.18-.977-7.2-.977-4.319 0-6.82.361-6.25.903M71 127.671c0 1.277 3.838 4.824 4.502 4.16.27-.269-.633-1.545-2.006-2.835-1.373-1.289-2.496-1.886-2.496-1.325M68.5 130c.34.55 1.068 1 1.618 1s.722-.45.382-1c-.34-.55-1.068-1-1.618-1s-.722.45-.382 1m-.5 3.5c1.292 1.375 2.799 2.5 3.349 2.5.55 0-.057-1.125-1.349-2.5s-2.799-2.5-3.349-2.5c-.55 0 .057 1.125 1.349 2.5m100.75-1.811c-2.633.688-2.103 3.226.913 4.373 2.906 1.105 3.76.604 4.792-2.812.574-1.898.318-2.232-1.638-2.134-1.274.064-3.104.322-4.067.573m-103.73 2.835c.696.838 1.471 1.318 1.723 1.067.693-.694-.716-2.591-1.924-2.591-.664 0-.588.574.201 1.524M64 137.5c1.292 1.375 2.574 2.5 2.849 2.5.275 0-.557-1.125-1.849-2.5-1.292-1.375-2.574-2.5-2.849-2.5-.275 0 .557 1.125 1.849 2.5m120.564 2.628c-1.41 1.11-2.564 2.513-2.564 3.119 0 .606 1.085.082 2.411-1.163 1.326-1.246 3.238-2.106 4.25-1.912 1.695.326 1.859 1.802 2.099 18.841.226 16.017.025 18.945-1.5 21.916-2.469 4.81-6.484 7.419-12.551 8.156l-5.209.633 4.516.141c5.901.184 10.883-2.523 13.729-7.463 2.143-3.718 2.234-4.78 2-23.282-.239-18.916-.298-19.406-2.431-20.194-1.575-.582-2.903-.244-4.75 1.208M59 148.5c-2.429 2.475-4.191 4.5-3.916 4.5.275 0 2.487-2.025 4.916-4.5 2.429-2.475 4.191-4.5 3.916-4.5-.275 0-2.487 2.025-4.916 4.5m105.691 7.25c1.175 4.437.694 6.879-2.072 10.505-3.644 4.778-4.131 8.449-1.733 13.081 1.092 2.109 1.741 4.472 1.443 5.25-.442 1.152 1.062 1.414 8.108 1.414 6.386 0 8.586-.327 8.404-1.25-.136-.687.519-2.69 1.456-4.45 2.633-4.949 2.183-9.423-1.399-13.912-2.766-3.468-3.042-4.402-2.547-8.638l.555-4.75h-12.944l.729 2.75m1.973 2.437c.422 2.694.035 4.579-1.436 7-1.107 1.822-2.307 4.888-2.667 6.813-.506 2.709-.054 2.143 2-2.5 3.287-7.432 3.945-10.787 2.583-13.16-.831-1.446-.934-1.052-.48 1.847M99.01 174.49c-10.857 10.888-11.367 11.581-9.73 13.219 1.638 1.637 1.885 1.556 4.723-1.551 2.955-3.236 5.709-3.457 4.522-.363-.491 1.28-.21 1.23 1.432-.256 2.399-2.171 2.567-2.677.644-1.939-2.685 1.03-2.692-1.611-.011-4.096 1.486-1.377 3.086-2.504 3.556-2.504.47 0 .854-.495.854-1.099 0-.605 2.087-3.071 4.639-5.481 3.902-3.686 4.438-4.622 3.377-5.901-.693-.835-1.551-1.519-1.905-1.519-.354 0-5.8 5.171-12.101 11.49m56.557-9.381c.888 1.436-23.637 26.078-25.314 25.435-1.346-.517-1.705.671-.551 1.824.891.892 28.366-26.45 27.685-27.551-.278-.449-.955-.817-1.505-.817-.55 0-.692.499-.315 1.109m-56.332 77.928C92.859 245.598 95.462 256 102.48 256c2.302 0 6.52-4.529 6.52-7 0-2.337-4.202-7.035-6.205-6.937-.712.035-2.314.473-3.56.974m18.977-.274c-.785.261-1.212 2.711-1.212 6.951v6.548l3.747-.608c2.06-.335 4.31-1.38 5-2.322 1.607-2.199 1.609-6.501.003-8.525-1.295-1.632-5.42-2.75-7.538-2.044m12.038-.1c-.847.341-1.202 2.653-1.1 7.17.082 3.667.337 5.429.566 3.917.527-3.477 2.858-3.561 5.504-.197 1.104 1.404 2.254 2.306 2.555 2.006.3-.301-.271-1.449-1.269-2.553-1.725-1.905-1.729-2.102-.081-3.923 1.384-1.529 1.509-2.338.62-4-.614-1.146-1.513-2.083-1.998-2.083-.486 0-1.483-.189-2.215-.421-.733-.231-1.894-.194-2.582.084m24.33 1.453c-5.652 4.446-.829 12.772 6.593 11.379 3.485-.653 4.337-2.16 3.105-5.495-.393-1.066-.742-.777-1.205 1-.509 1.953-1.399 2.572-4.068 2.829-5.253.505-8.028-4.663-4.434-8.258 1.86-1.859 6.53-2.07 8.229-.371.727.727 1.2.791 1.2.161 0-.989-4.174-3.361-5.912-3.361-.45 0-2.029.952-3.508 2.116m13.62-.916c-2.133 2.133-1.282 4.391 2.3 6.099 3.953 1.884 4.381 3.159 1.569 4.664-1.457.78-2.315.648-3.5-.536-.863-.864-1.569-1.143-1.569-.621 0 2.226 3.009 3.511 5.53 2.362 3.744-1.706 3.216-4.958-1.099-6.761-4.068-1.7-4.063-4.006.009-3.708 2.272.167 2.522-.04 1.518-1.25-1.463-1.763-3.155-1.852-4.758-.249m-86.032 6.55.168 6.75.582-5.935.582-5.936 4.282 5.686c2.356 3.127 4.493 5.685 4.75 5.685.258 0 .395-3.037.305-6.75l-.163-6.75-.587 5.488-.587 5.489-3.835-5.239c-2.11-2.881-4.247-5.238-4.75-5.238-.503 0-.839 3.037-.747 6.75m57.973-2.071c-.151 5.55 1.467 8.321 4.859 8.321s5.01-2.771 4.859-8.321l-.141-5.179-.642 5.307c-.55 4.543-2.04 7.162-4.076 7.162-2.036 0-3.526-2.619-4.076-7.162l-.642-5.307-.141 5.179M98.2 245.2c-1.547 1.547-1.547 6.053 0 7.6 2.119 2.119 6.607 1.424 8.392-1.3 1.517-2.316 1.517-2.684 0-5-1.785-2.724-6.273-3.419-8.392-1.3M118 249v5.127l3.25-.314c3.139-.302 3.25-.467 3.25-4.813s-.111-4.511-3.25-4.813l-3.25-.314V249m12-2.566c0 2.197.441 2.566 3.07 2.566 2.611 0 3.021-.336 2.75-2.25-.229-1.611-1.101-2.34-3.07-2.566-2.368-.273-2.75.04-2.75 2.25" fill="#1976D2" fill-rule="evenodd"/></svg>